<svg xmlns="http://www.w3.org/2000/svg" xmlns:xlink="http://www.w3.org/1999/xlink" width="411" zoomAndPan="magnify" viewBox="0 0 308.25 153.000002" height="204" preserveAspectRatio="xMidYMid meet" version="1.0"><defs><g/><clipPath id="e01ebeb931"><path d="M 94 64 L 111 64 L 111 85 L 94 85 Z M 94 64 " clip-rule="nonzero"/></clipPath><clipPath id="7fe4b296d7"><path d="M 144.539062 0 L 222.839844 63.148438 L 162.5 137.972656 L 84.199219 74.824219 Z M 144.539062 0 " clip-rule="nonzero"/></clipPath><clipPath id="9923c4d87c"><path d="M 144.539062 0 L 222.839844 63.148438 L 162.5 137.972656 L 84.199219 74.824219 Z M 144.539062 0 " clip-rule="nonzero"/></clipPath><clipPath id="27d0f2e5c0"><path d="M 144.539062 0 L 222.839844 63.148438 L 162.5 137.972656 L 84.199219 74.824219 Z M 144.539062 0 " clip-rule="nonzero"/></clipPath><clipPath id="3c41724cf8"><path d="M 92 63 L 113 63 L 113 86 L 92 86 Z M 92 63 " clip-rule="nonzero"/></clipPath><clipPath id="28425bec9d"><path d="M 144.539062 0 L 222.839844 63.148438 L 162.5 137.972656 L 84.199219 74.824219 Z M 144.539062 0 " clip-rule="nonzero"/></clipPath><clipPath id="52e118c013"><path d="M 144.539062 0 L 222.839844 63.148438 L 162.5 137.972656 L 84.199219 74.824219 Z M 144.539062 0 " clip-rule="nonzero"/></clipPath><clipPath id="fbe76027a9"><path d="M 144.539062 0 L 222.839844 63.148438 L 162.5 137.972656 L 84.199219 74.824219 Z M 144.539062 0 " clip-rule="nonzero"/></clipPath><clipPath id="b1a250d37b"><path d="M 89 52 L 212 52 L 212 95 L 89 95 Z M 89 52 " clip-rule="nonzero"/></clipPath><clipPath id="7d98e64368"><path d="M 144.539062 0 L 222.839844 63.148438 L 162.5 137.972656 L 84.199219 74.824219 Z M 144.539062 0 " clip-rule="nonzero"/></clipPath><clipPath id="a260867ba0"><path d="M 144.539062 0 L 222.839844 63.148438 L 162.5 137.972656 L 84.199219 74.824219 Z M 144.539062 0 " clip-rule="nonzero"/></clipPath><clipPath id="d8544be4a3"><path d="M 144.539062 0 L 222.839844 63.148438 L 162.5 137.972656 L 84.199219 74.824219 Z M 144.539062 0 " clip-rule="nonzero"/></clipPath><clipPath id="435e60590a"><path d="M 87 50 L 213 50 L 213 97 L 87 97 Z M 87 50 " clip-rule="nonzero"/></clipPath><clipPath id="095f912af8"><path d="M 144.539062 0 L 222.839844 63.148438 L 162.5 137.972656 L 84.199219 74.824219 Z M 144.539062 0 " clip-rule="nonzero"/></clipPath><clipPath id="6aa91012ce"><path d="M 144.539062 0 L 222.839844 63.148438 L 162.5 137.972656 L 84.199219 74.824219 Z M 144.539062 0 " clip-rule="nonzero"/></clipPath><clipPath id="8dd0b12b21"><path d="M 144.539062 0 L 222.839844 63.148438 L 162.5 137.972656 L 84.199219 74.824219 Z M 144.539062 0 " clip-rule="nonzero"/></clipPath><clipPath id="67da235382"><path d="M 91 53 L 210 53 L 210 94 L 91 94 Z M 91 53 " clip-rule="nonzero"/></clipPath><clipPath id="70ef735572"><path d="M 144.539062 0 L 222.839844 63.148438 L 162.5 137.972656 L 84.199219 74.824219 Z M 144.539062 0 " clip-rule="nonzero"/></clipPath><clipPath id="d434caf446"><path d="M 144.539062 0 L 222.839844 63.148438 L 162.5 137.972656 L 84.199219 74.824219 Z M 144.539062 0 " clip-rule="nonzero"/></clipPath><clipPath id="b6f0ebd464"><path d="M 144.539062 0 L 222.839844 63.148438 L 162.5 137.972656 L 84.199219 74.824219 Z M 144.539062 0 " clip-rule="nonzero"/></clipPath><clipPath id="dd3641349f"><path d="M 89 51 L 212 51 L 212 96 L 89 96 Z M 89 51 " clip-rule="nonzero"/></clipPath><clipPath id="5580130791"><path d="M 144.539062 0 L 222.839844 63.148438 L 162.5 137.972656 L 84.199219 74.824219 Z M 144.539062 0 " clip-rule="nonzero"/></clipPath><clipPath id="9d58718429"><path d="M 144.539062 0 L 222.839844 63.148438 L 162.5 137.972656 L 84.199219 74.824219 Z M 144.539062 0 " clip-rule="nonzero"/></clipPath><clipPath id="a714dd7196"><path d="M 144.539062 0 L 222.839844 63.148438 L 162.5 137.972656 L 84.199219 74.824219 Z M 144.539062 0 " clip-rule="nonzero"/></clipPath><clipPath id="ca2c8b43bb"><path d="M 92 55 L 209 55 L 209 92 L 92 92 Z M 92 55 " clip-rule="nonzero"/></clipPath><clipPath id="afdfbe748c"><path d="M 144.539062 0 L 222.839844 63.148438 L 162.5 137.972656 L 84.199219 74.824219 Z M 144.539062 0 " clip-rule="nonzero"/></clipPath><clipPath id="45de942c12"><path d="M 144.539062 0 L 222.839844 63.148438 L 162.5 137.972656 L 84.199219 74.824219 Z M 144.539062 0 " clip-rule="nonzero"/></clipPath><clipPath id="60fd70c750"><path d="M 144.539062 0 L 222.839844 63.148438 L 162.5 137.972656 L 84.199219 74.824219 Z M 144.539062 0 " clip-rule="nonzero"/></clipPath><clipPath id="afeb71b8bf"><path d="M 91 53 L 211 53 L 211 94 L 91 94 Z M 91 53 " clip-rule="nonzero"/></clipPath><clipPath id="74fc040932"><path d="M 144.539062 0 L 222.839844 63.148438 L 162.5 137.972656 L 84.199219 74.824219 Z M 144.539062 0 " clip-rule="nonzero"/></clipPath><clipPath id="b75f0296c0"><path d="M 144.539062 0 L 222.839844 63.148438 L 162.5 137.972656 L 84.199219 74.824219 Z M 144.539062 0 " clip-rule="nonzero"/></clipPath><clipPath id="322c55cfcc"><path d="M 144.539062 0 L 222.839844 63.148438 L 162.5 137.972656 L 84.199219 74.824219 Z M 144.539062 0 " clip-rule="nonzero"/></clipPath><clipPath id="ef4bbd6ff2"><path d="M 181 57 L 219 57 L 219 92 L 181 92 Z M 181 57 " clip-rule="nonzero"/></clipPath><clipPath id="cf2192dcff"><path d="M 144.539062 0 L 222.839844 63.148438 L 162.5 137.972656 L 84.199219 74.824219 Z M 144.539062 0 " clip-rule="nonzero"/></clipPath><clipPath id="443a76092b"><path d="M 144.539062 0 L 222.839844 63.148438 L 162.5 137.972656 L 84.199219 74.824219 Z M 144.539062 0 " clip-rule="nonzero"/></clipPath><clipPath id="6c681bdb12"><path d="M 144.539062 0 L 222.839844 63.148438 L 162.5 137.972656 L 84.199219 74.824219 Z M 144.539062 0 " clip-rule="nonzero"/></clipPath><clipPath id="120409ff6c"><path d="M 178 59 L 217 59 L 217 94 L 178 94 Z M 178 59 " clip-rule="nonzero"/></clipPath><clipPath id="10303b6519"><path d="M 144.539062 0 L 222.839844 63.148438 L 162.5 137.972656 L 84.199219 74.824219 Z M 144.539062 0 " clip-rule="nonzero"/></clipPath><clipPath id="022aeee296"><path d="M 144.539062 0 L 222.839844 63.148438 L 162.5 137.972656 L 84.199219 74.824219 Z M 144.539062 0 " clip-rule="nonzero"/></clipPath><clipPath id="5062bf0af1"><path d="M 144.539062 0 L 222.839844 63.148438 L 162.5 137.972656 L 84.199219 74.824219 Z M 144.539062 0 " clip-rule="nonzero"/></clipPath><clipPath id="fd484f37a8"><path d="M 176 61 L 214 61 L 214 97 L 176 97 Z M 176 61 " clip-rule="nonzero"/></clipPath><clipPath id="be14145393"><path d="M 144.539062 0 L 222.839844 63.148438 L 162.5 137.972656 L 84.199219 74.824219 Z M 144.539062 0 " clip-rule="nonzero"/></clipPath><clipPath id="5bb3f783c6"><path d="M 144.539062 0 L 222.839844 63.148438 L 162.5 137.972656 L 84.199219 74.824219 Z M 144.539062 0 " clip-rule="nonzero"/></clipPath><clipPath id="dcbe80353f"><path d="M 144.539062 0 L 222.839844 63.148438 L 162.5 137.972656 L 84.199219 74.824219 Z M 144.539062 0 " clip-rule="nonzero"/></clipPath><clipPath id="4943f77977"><path d="M 172 63 L 211 63 L 211 99 L 172 99 Z M 172 63 " clip-rule="nonzero"/></clipPath><clipPath id="9fa6c1222e"><path d="M 144.539062 0 L 222.839844 63.148438 L 162.5 137.972656 L 84.199219 74.824219 Z M 144.539062 0 " clip-rule="nonzero"/></clipPath><clipPath id="b4d763fda1"><path d="M 144.539062 0 L 222.839844 63.148438 L 162.5 137.972656 L 84.199219 74.824219 Z M 144.539062 0 " clip-rule="nonzero"/></clipPath><clipPath id="92a5eabef5"><path d="M 144.539062 0 L 222.839844 63.148438 L 162.5 137.972656 L 84.199219 74.824219 Z M 144.539062 0 " clip-rule="nonzero"/></clipPath><clipPath id="b61f166d05"><path d="M 168 65 L 208 65 L 208 102 L 168 102 Z M 168 65 " clip-rule="nonzero"/></clipPath><clipPath id="b0781e7d4b"><path d="M 144.539062 0 L 222.839844 63.148438 L 162.5 137.972656 L 84.199219 74.824219 Z M 144.539062 0 " clip-rule="nonzero"/></clipPath><clipPath id="e77d38bf21"><path d="M 144.539062 0 L 222.839844 63.148438 L 162.5 137.972656 L 84.199219 74.824219 Z M 144.539062 0 " clip-rule="nonzero"/></clipPath><clipPath id="85ba5c80d4"><path d="M 144.539062 0 L 222.839844 63.148438 L 162.5 137.972656 L 84.199219 74.824219 Z M 144.539062 0 " clip-rule="nonzero"/></clipPath><clipPath id="d98955abca"><path d="M 163 68 L 183 68 L 183 94 L 163 94 Z M 163 68 " clip-rule="nonzero"/></clipPath><clipPath id="0997419f9b"><path d="M 144.539062 0 L 222.839844 63.148438 L 162.5 137.972656 L 84.199219 74.824219 Z M 144.539062 0 " clip-rule="nonzero"/></clipPath><clipPath id="c4107ce244"><path d="M 144.539062 0 L 222.839844 63.148438 L 162.5 137.972656 L 84.199219 74.824219 Z M 144.539062 0 " clip-rule="nonzero"/></clipPath><clipPath id="465af6fd14"><path d="M 144.539062 0 L 222.839844 63.148438 L 162.5 137.972656 L 84.199219 74.824219 Z M 144.539062 0 " clip-rule="nonzero"/></clipPath><clipPath id="1c2b8fbbf4"><path d="M 162 67 L 185 67 L 185 96 L 162 96 Z M 162 67 " clip-rule="nonzero"/></clipPath><clipPath id="dc48a28dad"><path d="M 144.539062 0 L 222.839844 63.148438 L 162.5 137.972656 L 84.199219 74.824219 Z M 144.539062 0 " clip-rule="nonzero"/></clipPath><clipPath id="4b3237570b"><path d="M 144.539062 0 L 222.839844 63.148438 L 162.5 137.972656 L 84.199219 74.824219 Z M 144.539062 0 " clip-rule="nonzero"/></clipPath><clipPath id="c1bdd93125"><path d="M 144.539062 0 L 222.839844 63.148438 L 162.5 137.972656 L 84.199219 74.824219 Z M 144.539062 0 " clip-rule="nonzero"/></clipPath><clipPath id="92273f6e2d"><path d="M 169 73 L 188 73 L 188 95 L 169 95 Z M 169 73 " clip-rule="nonzero"/></clipPath><clipPath id="096a78b7e7"><path d="M 144.539062 0 L 222.839844 63.148438 L 162.5 137.972656 L 84.199219 74.824219 Z M 144.539062 0 " clip-rule="nonzero"/></clipPath><clipPath id="aea2df4bbb"><path d="M 144.539062 0 L 222.839844 63.148438 L 162.5 137.972656 L 84.199219 74.824219 Z M 144.539062 0 " clip-rule="nonzero"/></clipPath><clipPath id="ffa503e41b"><path d="M 144.539062 0 L 222.839844 63.148438 L 162.5 137.972656 L 84.199219 74.824219 Z M 144.539062 0 " clip-rule="nonzero"/></clipPath><clipPath id="ba8c72c215"><path d="M 167 71 L 189 71 L 189 96 L 167 96 Z M 167 71 " clip-rule="nonzero"/></clipPath><clipPath id="17f06a8fe5"><path d="M 144.539062 0 L 222.839844 63.148438 L 162.5 137.972656 L 84.199219 74.824219 Z M 144.539062 0 " clip-rule="nonzero"/></clipPath><clipPath id="ff6174d81b"><path d="M 144.539062 0 L 222.839844 63.148438 L 162.5 137.972656 L 84.199219 74.824219 Z M 144.539062 0 " clip-rule="nonzero"/></clipPath><clipPath id="0a8b229ce0"><path d="M 144.539062 0 L 222.839844 63.148438 L 162.5 137.972656 L 84.199219 74.824219 Z M 144.539062 0 " clip-rule="nonzero"/></clipPath><clipPath id="f4ed23de40"><path d="M 174 76 L 193 76 L 193 93 L 174 93 Z M 174 76 " clip-rule="nonzero"/></clipPath><clipPath id="cef70f0fac"><path d="M 144.539062 0 L 222.839844 63.148438 L 162.5 137.972656 L 84.199219 74.824219 Z M 144.539062 0 " clip-rule="nonzero"/></clipPath><clipPath id="44e26e9469"><path d="M 144.539062 0 L 222.839844 63.148438 L 162.5 137.972656 L 84.199219 74.824219 Z M 144.539062 0 " clip-rule="nonzero"/></clipPath><clipPath id="23eb76bdd7"><path d="M 144.539062 0 L 222.839844 63.148438 L 162.5 137.972656 L 84.199219 74.824219 Z M 144.539062 0 " clip-rule="nonzero"/></clipPath><clipPath id="31c01e5561"><path d="M 172 74 L 195 74 L 195 94 L 172 94 Z M 172 74 " clip-rule="nonzero"/></clipPath><clipPath id="695401bada"><path d="M 144.539062 0 L 222.839844 63.148438 L 162.5 137.972656 L 84.199219 74.824219 Z M 144.539062 0 " clip-rule="nonzero"/></clipPath><clipPath id="3975e4aff6"><path d="M 144.539062 0 L 222.839844 63.148438 L 162.5 137.972656 L 84.199219 74.824219 Z M 144.539062 0 " clip-rule="nonzero"/></clipPath><clipPath id="ad9a806695"><path d="M 144.539062 0 L 222.839844 63.148438 L 162.5 137.972656 L 84.199219 74.824219 Z M 144.539062 0 " clip-rule="nonzero"/></clipPath><clipPath id="15ccfa21fa"><path d="M 162 68 L 180 68 L 180 94 L 162 94 Z M 162 68 " clip-rule="nonzero"/></clipPath><clipPath id="74ba2cc1c3"><path d="M 144.539062 0 L 222.839844 63.148438 L 162.5 137.972656 L 84.199219 74.824219 Z M 144.539062 0 " clip-rule="nonzero"/></clipPath><clipPath id="47373ce4b4"><path d="M 144.539062 0 L 222.839844 63.148438 L 162.5 137.972656 L 84.199219 74.824219 Z M 144.539062 0 " clip-rule="nonzero"/></clipPath><clipPath id="36c04a5324"><path d="M 144.539062 0 L 222.839844 63.148438 L 162.5 137.972656 L 84.199219 74.824219 Z M 144.539062 0 " clip-rule="nonzero"/></clipPath><clipPath id="9e14c61f1f"><path d="M 160 66 L 181 66 L 181 96 L 160 96 Z M 160 66 " clip-rule="nonzero"/></clipPath><clipPath id="a7a3b30450"><path d="M 144.539062 0 L 222.839844 63.148438 L 162.5 137.972656 L 84.199219 74.824219 Z M 144.539062 0 " clip-rule="nonzero"/></clipPath><clipPath id="329bbc5776"><path d="M 144.539062 0 L 222.839844 63.148438 L 162.5 137.972656 L 84.199219 74.824219 Z M 144.539062 0 " clip-rule="nonzero"/></clipPath><clipPath id="822a0a83aa"><path d="M 144.539062 0 L 222.839844 63.148438 L 162.5 137.972656 L 84.199219 74.824219 Z M 144.539062 0 " clip-rule="nonzero"/></clipPath><clipPath id="610be0dd0a"><path d="M 147 56 L 165 56 L 165 78 L 147 78 Z M 147 56 " clip-rule="nonzero"/></clipPath><clipPath id="a2535d303e"><path d="M 144.539062 0 L 222.839844 63.148438 L 162.5 137.972656 L 84.199219 74.824219 Z M 144.539062 0 " clip-rule="nonzero"/></clipPath><clipPath id="667b7cb082"><path d="M 144.539062 0 L 222.839844 63.148438 L 162.5 137.972656 L 84.199219 74.824219 Z M 144.539062 0 " clip-rule="nonzero"/></clipPath><clipPath id="0d2af69bd3"><path d="M 144.539062 0 L 222.839844 63.148438 L 162.5 137.972656 L 84.199219 74.824219 Z M 144.539062 0 " clip-rule="nonzero"/></clipPath><clipPath id="f5805ff8e3"><path d="M 145 55 L 166 55 L 166 80 L 145 80 Z M 145 55 " clip-rule="nonzero"/></clipPath><clipPath id="34376a8477"><path d="M 144.539062 0 L 222.839844 63.148438 L 162.5 137.972656 L 84.199219 74.824219 Z M 144.539062 0 " clip-rule="nonzero"/></clipPath><clipPath id="01bac01f80"><path d="M 144.539062 0 L 222.839844 63.148438 L 162.5 137.972656 L 84.199219 74.824219 Z M 144.539062 0 " clip-rule="nonzero"/></clipPath><clipPath id="7666fd6e48"><path d="M 144.539062 0 L 222.839844 63.148438 L 162.5 137.972656 L 84.199219 74.824219 Z M 144.539062 0 " clip-rule="nonzero"/></clipPath><clipPath id="be2ab3d759"><path d="M 153 60 L 169 60 L 169 84 L 153 84 Z M 153 60 " clip-rule="nonzero"/></clipPath><clipPath id="95d1a7565c"><path d="M 144.539062 0 L 222.839844 63.148438 L 162.5 137.972656 L 84.199219 74.824219 Z M 144.539062 0 " clip-rule="nonzero"/></clipPath><clipPath id="8d67386d88"><path d="M 144.539062 0 L 222.839844 63.148438 L 162.5 137.972656 L 84.199219 74.824219 Z M 144.539062 0 " clip-rule="nonzero"/></clipPath><clipPath id="f7c483872c"><path d="M 144.539062 0 L 222.839844 63.148438 L 162.5 137.972656 L 84.199219 74.824219 Z M 144.539062 0 " clip-rule="nonzero"/></clipPath><clipPath id="9f399dc52c"><path d="M 152 59 L 171 59 L 171 86 L 152 86 Z M 152 59 " clip-rule="nonzero"/></clipPath><clipPath id="2a61a3f97b"><path d="M 144.539062 0 L 222.839844 63.148438 L 162.5 137.972656 L 84.199219 74.824219 Z M 144.539062 0 " clip-rule="nonzero"/></clipPath><clipPath id="3e2bb9e203"><path d="M 144.539062 0 L 222.839844 63.148438 L 162.5 137.972656 L 84.199219 74.824219 Z M 144.539062 0 " clip-rule="nonzero"/></clipPath><clipPath id="28a45884c0"><path d="M 144.539062 0 L 222.839844 63.148438 L 162.5 137.972656 L 84.199219 74.824219 Z M 144.539062 0 " clip-rule="nonzero"/></clipPath><clipPath id="580aa0de1f"><path d="M 158 64 L 175 64 L 175 91 L 158 91 Z M 158 64 " clip-rule="nonzero"/></clipPath><clipPath id="9d06f9f4c2"><path d="M 144.539062 0 L 222.839844 63.148438 L 162.5 137.972656 L 84.199219 74.824219 Z M 144.539062 0 " clip-rule="nonzero"/></clipPath><clipPath id="1b38599445"><path d="M 144.539062 0 L 222.839844 63.148438 L 162.5 137.972656 L 84.199219 74.824219 Z M 144.539062 0 " clip-rule="nonzero"/></clipPath><clipPath id="8d642e0cab"><path d="M 144.539062 0 L 222.839844 63.148438 L 162.5 137.972656 L 84.199219 74.824219 Z M 144.539062 0 " clip-rule="nonzero"/></clipPath><clipPath id="90b9628c20"><path d="M 156 62 L 177 62 L 177 93 L 156 93 Z M 156 62 " clip-rule="nonzero"/></clipPath><clipPath id="e32abbfbc7"><path d="M 144.539062 0 L 222.839844 63.148438 L 162.5 137.972656 L 84.199219 74.824219 Z M 144.539062 0 " clip-rule="nonzero"/></clipPath><clipPath id="91449e1b41"><path d="M 144.539062 0 L 222.839844 63.148438 L 162.5 137.972656 L 84.199219 74.824219 Z M 144.539062 0 " clip-rule="nonzero"/></clipPath><clipPath id="b72e496210"><path d="M 144.539062 0 L 222.839844 63.148438 L 162.5 137.972656 L 84.199219 74.824219 Z M 144.539062 0 " clip-rule="nonzero"/></clipPath><clipPath id="075f01cfe0"><path d="M 142 54 L 160 54 L 160 75 L 142 75 Z M 142 54 " clip-rule="nonzero"/></clipPath><clipPath id="618cc95dbd"><path d="M 144.539062 0 L 222.839844 63.148438 L 162.5 137.972656 L 84.199219 74.824219 Z M 144.539062 0 " clip-rule="nonzero"/></clipPath><clipPath id="22a4fa6b61"><path d="M 144.539062 0 L 222.839844 63.148438 L 162.5 137.972656 L 84.199219 74.824219 Z M 144.539062 0 " clip-rule="nonzero"/></clipPath><clipPath id="2b2e8141f0"><path d="M 144.539062 0 L 222.839844 63.148438 L 162.5 137.972656 L 84.199219 74.824219 Z M 144.539062 0 " clip-rule="nonzero"/></clipPath><clipPath id="9ad7bb9f26"><path d="M 140 52 L 161 52 L 161 77 L 140 77 Z M 140 52 " clip-rule="nonzero"/></clipPath><clipPath id="be769ca444"><path d="M 144.539062 0 L 222.839844 63.148438 L 162.5 137.972656 L 84.199219 74.824219 Z M 144.539062 0 " clip-rule="nonzero"/></clipPath><clipPath id="6f16a5c1fc"><path d="M 144.539062 0 L 222.839844 63.148438 L 162.5 137.972656 L 84.199219 74.824219 Z M 144.539062 0 " clip-rule="nonzero"/></clipPath><clipPath id="3669692da7"><path d="M 144.539062 0 L 222.839844 63.148438 L 162.5 137.972656 L 84.199219 74.824219 Z M 144.539062 0 " clip-rule="nonzero"/></clipPath><clipPath id="4e7e9f1a4f"><path d="M 136 52 L 154 52 L 154 74 L 136 74 Z M 136 52 " clip-rule="nonzero"/></clipPath><clipPath id="8db4eb43c1"><path d="M 144.539062 0 L 222.839844 63.148438 L 162.5 137.972656 L 84.199219 74.824219 Z M 144.539062 0 " clip-rule="nonzero"/></clipPath><clipPath id="cb3aaf0c83"><path d="M 144.539062 0 L 222.839844 63.148438 L 162.5 137.972656 L 84.199219 74.824219 Z M 144.539062 0 " clip-rule="nonzero"/></clipPath><clipPath id="de6cbf1adb"><path d="M 144.539062 0 L 222.839844 63.148438 L 162.5 137.972656 L 84.199219 74.824219 Z M 144.539062 0 " clip-rule="nonzero"/></clipPath><clipPath id="2b0fa910f0"><path d="M 135 51 L 155 51 L 155 75 L 135 75 Z M 135 51 " clip-rule="nonzero"/></clipPath><clipPath id="ca889883a7"><path d="M 144.539062 0 L 222.839844 63.148438 L 162.5 137.972656 L 84.199219 74.824219 Z M 144.539062 0 " clip-rule="nonzero"/></clipPath><clipPath id="880469ba21"><path d="M 144.539062 0 L 222.839844 63.148438 L 162.5 137.972656 L 84.199219 74.824219 Z M 144.539062 0 " clip-rule="nonzero"/></clipPath><clipPath id="ff9f8d8ece"><path d="M 144.539062 0 L 222.839844 63.148438 L 162.5 137.972656 L 84.199219 74.824219 Z M 144.539062 0 " clip-rule="nonzero"/></clipPath><clipPath id="11f68370ef"><path d="M 132 52 L 149 52 L 149 74 L 132 74 Z M 132 52 " clip-rule="nonzero"/></clipPath><clipPath id="867b8f8889"><path d="M 144.539062 0 L 222.839844 63.148438 L 162.5 137.972656 L 84.199219 74.824219 Z M 144.539062 0 " clip-rule="nonzero"/></clipPath><clipPath id="7075233072"><path d="M 144.539062 0 L 222.839844 63.148438 L 162.5 137.972656 L 84.199219 74.824219 Z M 144.539062 0 " clip-rule="nonzero"/></clipPath><clipPath id="766dd25488"><path d="M 144.539062 0 L 222.839844 63.148438 L 162.5 137.972656 L 84.199219 74.824219 Z M 144.539062 0 " clip-rule="nonzero"/></clipPath><clipPath id="5517ddf118"><path d="M 130 51 L 150 51 L 150 75 L 130 75 Z M 130 51 " clip-rule="nonzero"/></clipPath><clipPath id="595787e4c0"><path d="M 144.539062 0 L 222.839844 63.148438 L 162.5 137.972656 L 84.199219 74.824219 Z M 144.539062 0 " clip-rule="nonzero"/></clipPath><clipPath id="0726681f29"><path d="M 144.539062 0 L 222.839844 63.148438 L 162.5 137.972656 L 84.199219 74.824219 Z M 144.539062 0 " clip-rule="nonzero"/></clipPath><clipPath id="c1062435df"><path d="M 144.539062 0 L 222.839844 63.148438 L 162.5 137.972656 L 84.199219 74.824219 Z M 144.539062 0 " clip-rule="nonzero"/></clipPath><clipPath id="c7b1a79925"><path d="M 126 52 L 144 52 L 144 76 L 126 76 Z M 126 52 " clip-rule="nonzero"/></clipPath><clipPath id="f8dc3fdca2"><path d="M 144.539062 0 L 222.839844 63.148438 L 162.5 137.972656 L 84.199219 74.824219 Z M 144.539062 0 " clip-rule="nonzero"/></clipPath><clipPath id="b0b4ba8ac6"><path d="M 144.539062 0 L 222.839844 63.148438 L 162.5 137.972656 L 84.199219 74.824219 Z M 144.539062 0 " clip-rule="nonzero"/></clipPath><clipPath id="ce81529c89"><path d="M 144.539062 0 L 222.839844 63.148438 L 162.5 137.972656 L 84.199219 74.824219 Z M 144.539062 0 " clip-rule="nonzero"/></clipPath><clipPath id="23912fc0eb"><path d="M 124 51 L 146 51 L 146 77 L 124 77 Z M 124 51 " clip-rule="nonzero"/></clipPath><clipPath id="4479394a53"><path d="M 144.539062 0 L 222.839844 63.148438 L 162.5 137.972656 L 84.199219 74.824219 Z M 144.539062 0 " clip-rule="nonzero"/></clipPath><clipPath id="fff074dd0c"><path d="M 144.539062 0 L 222.839844 63.148438 L 162.5 137.972656 L 84.199219 74.824219 Z M 144.539062 0 " clip-rule="nonzero"/></clipPath><clipPath id="69c4ef2ba0"><path d="M 144.539062 0 L 222.839844 63.148438 L 162.5 137.972656 L 84.199219 74.824219 Z M 144.539062 0 " clip-rule="nonzero"/></clipPath><clipPath id="3d370ce67c"><path d="M 120 53 L 140 53 L 140 78 L 120 78 Z M 120 53 " clip-rule="nonzero"/></clipPath><clipPath id="4bc31bb7e5"><path d="M 144.539062 0 L 222.839844 63.148438 L 162.5 137.972656 L 84.199219 74.824219 Z M 144.539062 0 " clip-rule="nonzero"/></clipPath><clipPath id="9afbc61f4d"><path d="M 144.539062 0 L 222.839844 63.148438 L 162.5 137.972656 L 84.199219 74.824219 Z M 144.539062 0 " clip-rule="nonzero"/></clipPath><clipPath id="5e5c60e82f"><path d="M 144.539062 0 L 222.839844 63.148438 L 162.5 137.972656 L 84.199219 74.824219 Z M 144.539062 0 " clip-rule="nonzero"/></clipPath><clipPath id="464272cc21"><path d="M 118 52 L 141 52 L 141 80 L 118 80 Z M 118 52 " clip-rule="nonzero"/></clipPath><clipPath id="e103f1e8c4"><path d="M 144.539062 0 L 222.839844 63.148438 L 162.5 137.972656 L 84.199219 74.824219 Z M 144.539062 0 " clip-rule="nonzero"/></clipPath><clipPath id="c92cda244a"><path d="M 144.539062 0 L 222.839844 63.148438 L 162.5 137.972656 L 84.199219 74.824219 Z M 144.539062 0 " clip-rule="nonzero"/></clipPath><clipPath id="8c1259c3d7"><path d="M 144.539062 0 L 222.839844 63.148438 L 162.5 137.972656 L 84.199219 74.824219 Z M 144.539062 0 " clip-rule="nonzero"/></clipPath><clipPath id="d69b95e26f"><path d="M 115 54 L 135 54 L 135 81 L 115 81 Z M 115 54 " clip-rule="nonzero"/></clipPath><clipPath id="63c66596ec"><path d="M 144.539062 0 L 222.839844 63.148438 L 162.5 137.972656 L 84.199219 74.824219 Z M 144.539062 0 " clip-rule="nonzero"/></clipPath><clipPath id="5162c56f7a"><path d="M 144.539062 0 L 222.839844 63.148438 L 162.5 137.972656 L 84.199219 74.824219 Z M 144.539062 0 " clip-rule="nonzero"/></clipPath><clipPath id="0ebea8493c"><path d="M 144.539062 0 L 222.839844 63.148438 L 162.5 137.972656 L 84.199219 74.824219 Z M 144.539062 0 " clip-rule="nonzero"/></clipPath><clipPath id="653f919b40"><path d="M 114 53 L 136 53 L 136 83 L 114 83 Z M 114 53 " clip-rule="nonzero"/></clipPath><clipPath id="142fd18650"><path d="M 144.539062 0 L 222.839844 63.148438 L 162.5 137.972656 L 84.199219 74.824219 Z M 144.539062 0 " clip-rule="nonzero"/></clipPath><clipPath id="7aa3ea88c9"><path d="M 144.539062 0 L 222.839844 63.148438 L 162.5 137.972656 L 84.199219 74.824219 Z M 144.539062 0 " clip-rule="nonzero"/></clipPath><clipPath id="0849508f3a"><path d="M 144.539062 0 L 222.839844 63.148438 L 162.5 137.972656 L 84.199219 74.824219 Z M 144.539062 0 " clip-rule="nonzero"/></clipPath><clipPath id="66ee1a5b2d"><path d="M 109 57 L 129 57 L 129 84 L 109 84 Z M 109 57 " clip-rule="nonzero"/></clipPath><clipPath id="dc174edd0b"><path d="M 144.539062 0 L 222.839844 63.148438 L 162.5 137.972656 L 84.199219 74.824219 Z M 144.539062 0 " clip-rule="nonzero"/></clipPath><clipPath id="446e386558"><path d="M 144.539062 0 L 222.839844 63.148438 L 162.5 137.972656 L 84.199219 74.824219 Z M 144.539062 0 " clip-rule="nonzero"/></clipPath><clipPath id="4b42707185"><path d="M 144.539062 0 L 222.839844 63.148438 L 162.5 137.972656 L 84.199219 74.824219 Z M 144.539062 0 " clip-rule="nonzero"/></clipPath><clipPath id="eb80536c0a"><path d="M 108 55 L 130 55 L 130 86 L 108 86 Z M 108 55 " clip-rule="nonzero"/></clipPath><clipPath id="2fbe65d8be"><path d="M 144.539062 0 L 222.839844 63.148438 L 162.5 137.972656 L 84.199219 74.824219 Z M 144.539062 0 " clip-rule="nonzero"/></clipPath><clipPath id="3bdb662767"><path d="M 144.539062 0 L 222.839844 63.148438 L 162.5 137.972656 L 84.199219 74.824219 Z M 144.539062 0 " clip-rule="nonzero"/></clipPath><clipPath id="5c5ecc6ad6"><path d="M 144.539062 0 L 222.839844 63.148438 L 162.5 137.972656 L 84.199219 74.824219 Z M 144.539062 0 " clip-rule="nonzero"/></clipPath><clipPath id="f722788a43"><path d="M 104 59 L 124 59 L 124 88 L 104 88 Z M 104 59 " clip-rule="nonzero"/></clipPath><clipPath id="983519b815"><path d="M 144.539062 0 L 222.839844 63.148438 L 162.5 137.972656 L 84.199219 74.824219 Z M 144.539062 0 " clip-rule="nonzero"/></clipPath><clipPath id="2711cd3edf"><path d="M 144.539062 0 L 222.839844 63.148438 L 162.5 137.972656 L 84.199219 74.824219 Z M 144.539062 0 " clip-rule="nonzero"/></clipPath><clipPath id="18202e9b80"><path d="M 144.539062 0 L 222.839844 63.148438 L 162.5 137.972656 L 84.199219 74.824219 Z M 144.539062 0 " clip-rule="nonzero"/></clipPath><clipPath id="240a0409c6"><path d="M 103 57 L 125 57 L 125 90 L 103 90 Z M 103 57 " clip-rule="nonzero"/></clipPath><clipPath id="f012e0962b"><path d="M 144.539062 0 L 222.839844 63.148438 L 162.5 137.972656 L 84.199219 74.824219 Z M 144.539062 0 " clip-rule="nonzero"/></clipPath><clipPath id="58761e7270"><path d="M 144.539062 0 L 222.839844 63.148438 L 162.5 137.972656 L 84.199219 74.824219 Z M 144.539062 0 " clip-rule="nonzero"/></clipPath><clipPath id="287248a012"><path d="M 144.539062 0 L 222.839844 63.148438 L 162.5 137.972656 L 84.199219 74.824219 Z M 144.539062 0 " clip-rule="nonzero"/></clipPath><clipPath id="2cc28af85f"><path d="M 99 62 L 119 62 L 119 91 L 99 91 Z M 99 62 " clip-rule="nonzero"/></clipPath><clipPath id="fa25607fdc"><path d="M 144.539062 0 L 222.839844 63.148438 L 162.5 137.972656 L 84.199219 74.824219 Z M 144.539062 0 " clip-rule="nonzero"/></clipPath><clipPath id="4f4b622ca5"><path d="M 144.539062 0 L 222.839844 63.148438 L 162.5 137.972656 L 84.199219 74.824219 Z M 144.539062 0 " clip-rule="nonzero"/></clipPath><clipPath id="8888dc20df"><path d="M 144.539062 0 L 222.839844 63.148438 L 162.5 137.972656 L 84.199219 74.824219 Z M 144.539062 0 " clip-rule="nonzero"/></clipPath><clipPath id="ade0921723"><path d="M 97 60 L 121 60 L 121 93 L 97 93 Z M 97 60 " clip-rule="nonzero"/></clipPath><clipPath id="6c32464e4d"><path d="M 144.539062 0 L 222.839844 63.148438 L 162.5 137.972656 L 84.199219 74.824219 Z M 144.539062 0 " clip-rule="nonzero"/></clipPath><clipPath id="f20d058be9"><path d="M 144.539062 0 L 222.839844 63.148438 L 162.5 137.972656 L 84.199219 74.824219 Z M 144.539062 0 " clip-rule="nonzero"/></clipPath><clipPath id="5e501a9409"><path d="M 144.539062 0 L 222.839844 63.148438 L 162.5 137.972656 L 84.199219 74.824219 Z M 144.539062 0 " clip-rule="nonzero"/></clipPath><clipPath id="07290da2d3"><path d="M 92 61 L 128 61 L 128 90 L 92 90 Z M 92 61 " clip-rule="nonzero"/></clipPath><clipPath id="66b6d57063"><path d="M 144.539062 0 L 222.839844 63.148438 L 162.5 137.972656 L 84.199219 74.824219 Z M 144.539062 0 " clip-rule="nonzero"/></clipPath><clipPath id="4d5982907c"><path d="M 144.539062 0 L 222.839844 63.148438 L 162.5 137.972656 L 84.199219 74.824219 Z M 144.539062 0 " clip-rule="nonzero"/></clipPath><clipPath id="ed472aca0a"><path d="M 144.539062 0 L 222.839844 63.148438 L 162.5 137.972656 L 84.199219 74.824219 Z M 144.539062 0 " clip-rule="nonzero"/></clipPath><clipPath id="6eeec9f9ad"><path d="M 106 55 L 141 55 L 141 81 L 106 81 Z M 106 55 " clip-rule="nonzero"/></clipPath><clipPath id="a131e8d4ed"><path d="M 144.539062 0 L 222.839844 63.148438 L 162.5 137.972656 L 84.199219 74.824219 Z M 144.539062 0 " clip-rule="nonzero"/></clipPath><clipPath id="8f98fc3792"><path d="M 144.539062 0 L 222.839844 63.148438 L 162.5 137.972656 L 84.199219 74.824219 Z M 144.539062 0 " clip-rule="nonzero"/></clipPath><clipPath id="d10c52673d"><path d="M 144.539062 0 L 222.839844 63.148438 L 162.5 137.972656 L 84.199219 74.824219 Z M 144.539062 0 " clip-rule="nonzero"/></clipPath><clipPath id="d6ea49aa1b"><path d="M 123 54 L 157 54 L 157 73 L 123 73 Z M 123 54 " clip-rule="nonzero"/></clipPath><clipPath id="476e548dfb"><path d="M 144.539062 0 L 222.839844 63.148438 L 162.5 137.972656 L 84.199219 74.824219 Z M 144.539062 0 " clip-rule="nonzero"/></clipPath><clipPath id="23f26b3c3f"><path d="M 144.539062 0 L 222.839844 63.148438 L 162.5 137.972656 L 84.199219 74.824219 Z M 144.539062 0 " clip-rule="nonzero"/></clipPath><clipPath id="fb64dcc016"><path d="M 144.539062 0 L 222.839844 63.148438 L 162.5 137.972656 L 84.199219 74.824219 Z M 144.539062 0 " clip-rule="nonzero"/></clipPath><clipPath id="a15c2fe905"><path d="M 144 57 L 169 57 L 169 80 L 144 80 Z M 144 57 " clip-rule="nonzero"/></clipPath><clipPath id="73de78fc8c"><path d="M 144.539062 0 L 222.839844 63.148438 L 162.5 137.972656 L 84.199219 74.824219 Z M 144.539062 0 " clip-rule="nonzero"/></clipPath><clipPath id="b9affc00ee"><path d="M 144.539062 0 L 222.839844 63.148438 L 162.5 137.972656 L 84.199219 74.824219 Z M 144.539062 0 " clip-rule="nonzero"/></clipPath><clipPath id="5bcb598714"><path d="M 144.539062 0 L 222.839844 63.148438 L 162.5 137.972656 L 84.199219 74.824219 Z M 144.539062 0 " clip-rule="nonzero"/></clipPath><clipPath id="d995a70c19"><path d="M 161 69 L 187 69 L 187 93 L 161 93 Z M 161 69 " clip-rule="nonzero"/></clipPath><clipPath id="dd40702e67"><path d="M 144.539062 0 L 222.839844 63.148438 L 162.5 137.972656 L 84.199219 74.824219 Z M 144.539062 0 " clip-rule="nonzero"/></clipPath><clipPath id="f54775c7f0"><path d="M 144.539062 0 L 222.839844 63.148438 L 162.5 137.972656 L 84.199219 74.824219 Z M 144.539062 0 " clip-rule="nonzero"/></clipPath><clipPath id="23b2abc0c3"><path d="M 144.539062 0 L 222.839844 63.148438 L 162.5 137.972656 L 84.199219 74.824219 Z M 144.539062 0 " clip-rule="nonzero"/></clipPath><clipPath id="993e235701"><path d="M 177 74 L 199 74 L 199 92 L 177 92 Z M 177 74 " clip-rule="nonzero"/></clipPath><clipPath id="084cf02d40"><path d="M 144.539062 0 L 222.839844 63.148438 L 162.5 137.972656 L 84.199219 74.824219 Z M 144.539062 0 " clip-rule="nonzero"/></clipPath><clipPath id="ca562d6de2"><path d="M 144.539062 0 L 222.839844 63.148438 L 162.5 137.972656 L 84.199219 74.824219 Z M 144.539062 0 " clip-rule="nonzero"/></clipPath><clipPath id="551a8a3e32"><path d="M 144.539062 0 L 222.839844 63.148438 L 162.5 137.972656 L 84.199219 74.824219 Z M 144.539062 0 " clip-rule="nonzero"/></clipPath><clipPath id="39873cd016"><path d="M 187 67 L 209 67 L 209 86 L 187 86 Z M 187 67 " clip-rule="nonzero"/></clipPath><clipPath id="623d7d752b"><path d="M 144.539062 0 L 222.839844 63.148438 L 162.5 137.972656 L 84.199219 74.824219 Z M 144.539062 0 " clip-rule="nonzero"/></clipPath><clipPath id="8da232a70d"><path d="M 144.539062 0 L 222.839844 63.148438 L 162.5 137.972656 L 84.199219 74.824219 Z M 144.539062 0 " clip-rule="nonzero"/></clipPath><clipPath id="e6ab387406"><path d="M 144.539062 0 L 222.839844 63.148438 L 162.5 137.972656 L 84.199219 74.824219 Z M 144.539062 0 " clip-rule="nonzero"/></clipPath></defs><g clip-path="url(#e01ebeb931)"><g clip-path="url(#7fe4b296d7)"><g clip-path="url(#9923c4d87c)"><g clip-path="url(#27d0f2e5c0)"><path fill="#000000" d="M 96.511719 64.925781 L 110.851562 83.269531 L 110.316406 84.132812 L 94.152344 66.253906 Z M 96.511719 64.925781 " fill-opacity="1" fill-rule="evenodd"/></g></g></g></g><g clip-path="url(#3c41724cf8)"><g clip-path="url(#28425bec9d)"><g clip-path="url(#52e118c013)"><g clip-path="url(#fbe76027a9)"><path stroke-linecap="butt" transform="matrix(0.201022, 0.162114, -0.162599, 0.201624, 133.31257, 10.347761)" fill="none" stroke-linejoin="miter" d="M 21.743364 253.210055 L 109.557573 273.583792 L 110.042974 277.475157 L 17.860094 262.919525 Z M 21.743364 253.210055 " stroke="#000000" stroke-width="1" stroke-opacity="1" stroke-miterlimit="4"/></g></g></g></g><g clip-path="url(#b1a250d37b)"><g clip-path="url(#7d98e64368)"><g clip-path="url(#a260867ba0)"><g clip-path="url(#d8544be4a3)"><path fill="#000000" d="M 89.210938 68.988281 L 118.371094 92.203125 C 185.269531 36.171875 153.953125 131.082031 211.121094 77.289062 L 195.589844 65.667969 C 160.546875 106.394531 165.78125 17.128906 89.210938 68.988281 Z M 89.210938 68.988281 " fill-opacity="1" fill-rule="evenodd"/></g></g></g></g><g clip-path="url(#435e60590a)"><g clip-path="url(#095f912af8)"><g clip-path="url(#6aa91012ce)"><g clip-path="url(#8dd0b12b21)"><path stroke-linecap="butt" transform="matrix(0.201022, 0.162114, -0.162599, 0.201624, 133.31257, 10.347761)" fill="none" stroke-linejoin="miter" d="M 9.612323 283.112875 L 153.939262 282.207262 C 219.384597 -48.313947 355.699913 312.812083 397.25619 12.600005 L 322.19243 15.316963 C 315.563941 222.639628 114.352096 -58.31137 9.612323 283.112875 Z M 9.612323 283.112875 " stroke="#000000" stroke-width="1.209" stroke-opacity="1" stroke-miterlimit="4"/></g></g></g></g><g clip-path="url(#67da235382)"><g clip-path="url(#70ef735572)"><g clip-path="url(#d434caf446)"><g clip-path="url(#b6f0ebd464)"><path fill="#ffffff" d="M 91.652344 68.542969 L 118.386719 89.972656 C 185.453125 36.285156 154.660156 128.617188 209.363281 77.480469 L 195.65625 67.125 C 160.933594 106.519531 164.652344 19.894531 91.652344 68.542969 Z M 91.652344 68.542969 " fill-opacity="1" fill-rule="evenodd"/></g></g></g></g><g clip-path="url(#dd3641349f)"><g clip-path="url(#5580130791)"><g clip-path="url(#9d58718429)"><g clip-path="url(#a714dd7196)"><path stroke-linecap="butt" transform="matrix(0.201022, 0.162114, -0.162599, 0.201624, 133.31257, 10.347761)" fill="none" stroke-linejoin="miter" d="M 15.888822 275.857663 L 148.564471 275.466288 C 220.213359 -48.418463 351.839459 303.691078 392.423003 17.435424 L 325.934388 19.534759 C 317.033456 222.078041 117.672067 -47.263996 15.888822 275.857663 Z M 15.888822 275.857663 " stroke="#000000" stroke-width="1.167" stroke-opacity="1" stroke-miterlimit="4"/></g></g></g></g><g clip-path="url(#ca2c8b43bb)"><g clip-path="url(#afdfbe748c)"><g clip-path="url(#45de942c12)"><g clip-path="url(#60fd70c750)"><path fill="#000000" d="M 92.566406 69.78125 L 116.570312 88.695312 C 183.597656 33.507812 156.964844 126.570312 208.664062 76.574219 L 196.914062 67.445312 C 159.476562 109.117188 166.046875 22.050781 92.5625 69.78125 Z M 92.566406 69.78125 " fill-opacity="1" fill-rule="evenodd"/></g></g></g></g><g clip-path="url(#afeb71b8bf)"><g clip-path="url(#74fc040932)"><g clip-path="url(#b75f0296c0)"><g clip-path="url(#322c55cfcc)"><path stroke-linecap="butt" transform="matrix(0.201022, 0.162114, -0.162599, 0.201624, 133.31257, 10.347761)" fill="none" stroke-linejoin="miter" d="M 21.654073 277.3637 L 139.984387 276.029759 C 207.869288 -52.268189 353.810729 291.954127 388.112453 16.406531 L 330.504358 17.44897 C 318.956078 233.415863 127.11699 -44.163692 21.642298 277.373168 Z M 21.654073 277.3637 " stroke="#000000" stroke-width="1.049" stroke-opacity="1" stroke-miterlimit="4"/></g></g></g></g><g clip-path="url(#ef4bbd6ff2)"><g clip-path="url(#cf2192dcff)"><g clip-path="url(#443a76092b)"><g clip-path="url(#6c681bdb12)"><path stroke-linecap="butt" transform="matrix(0.201022, 0.162114, -0.162599, 0.201624, 133.31257, 10.347761)" fill="none" stroke-linejoin="miter" d="M 323.043961 30.015232 L 391.45711 29.526446 " stroke="#000000" stroke-width="8" stroke-opacity="1" stroke-miterlimit="4"/></g></g></g></g><g clip-path="url(#120409ff6c)"><g clip-path="url(#10303b6519)"><g clip-path="url(#022aeee296)"><g clip-path="url(#5062bf0af1)"><path stroke-linecap="butt" transform="matrix(0.201022, 0.162114, -0.162599, 0.201624, 130.634454, 12.870143)" fill="none" stroke-linejoin="miter" d="M 323.053564 30.012747 L 391.466713 29.52396 " stroke="#000000" stroke-width="8" stroke-opacity="1" stroke-miterlimit="4"/></g></g></g></g><g clip-path="url(#fd484f37a8)"><g clip-path="url(#be14145393)"><g clip-path="url(#5bb3f783c6)"><g clip-path="url(#dcbe80353f)"><path stroke-linecap="butt" transform="matrix(0.201022, 0.162114, -0.162599, 0.201624, 127.663847, 15.156648)" fill="none" stroke-linejoin="miter" d="M 323.044109 30.013658 L 391.457258 29.524872 " stroke="#000000" stroke-width="8" stroke-opacity="1" stroke-miterlimit="4"/></g></g></g></g><g clip-path="url(#4943f77977)"><g clip-path="url(#9fa6c1222e)"><g clip-path="url(#b4d763fda1)"><g clip-path="url(#92a5eabef5)"><path stroke-linecap="butt" transform="matrix(0.207415, 0.167269, -0.162599, 0.201624, 122.388385, 15.584398)" fill="none" stroke-linejoin="miter" d="M 323.044023 30.016873 L 391.464219 29.536044 " stroke="#000000" stroke-width="8" stroke-opacity="1" stroke-miterlimit="4"/></g></g></g></g><g clip-path="url(#b61f166d05)"><g clip-path="url(#b0781e7d4b)"><g clip-path="url(#e77d38bf21)"><g clip-path="url(#85ba5c80d4)"><path stroke-linecap="butt" transform="matrix(0.212443, 0.176625, -0.166003, 0.198835, 117.282543, 14.117432)" fill="none" stroke-linejoin="miter" d="M 323.050523 30.015784 L 391.463347 29.537205 " stroke="#000000" stroke-width="8" stroke-opacity="1" stroke-miterlimit="4"/></g></g></g></g><g clip-path="url(#d98955abca)"><g clip-path="url(#0997419f9b)"><g clip-path="url(#c4107ce244)"><g clip-path="url(#465af6fd14)"><path fill="#000000" d="M 163.75 68.773438 L 181.207031 93.832031 L 182.992188 93.816406 L 165.679688 70.171875 Z M 163.75 68.773438 " fill-opacity="1" fill-rule="evenodd"/></g></g></g></g><g clip-path="url(#1c2b8fbbf4)"><g clip-path="url(#dc48a28dad)"><g clip-path="url(#4b3237570b)"><g clip-path="url(#c1bdd93125)"><path stroke-linecap="butt" transform="matrix(0.201022, 0.162114, -0.162599, 0.201624, 133.31257, 10.347761)" fill="none" stroke-linejoin="miter" d="M 233.768464 101.815998 L 347.301253 134.81474 L 352.644155 130.441318 L 242.984362 101.341897 Z M 233.768464 101.815998 " stroke="#000000" stroke-width="1" stroke-opacity="1" stroke-miterlimit="4"/></g></g></g></g><g clip-path="url(#92273f6e2d)"><g clip-path="url(#096a78b7e7)"><g clip-path="url(#aea2df4bbb)"><g clip-path="url(#ffa503e41b)"><path fill="#000000" d="M 169.132812 73.277344 L 185.867188 94.039062 L 187.441406 93.289062 L 170.867188 74.515625 Z M 169.132812 73.277344 " fill-opacity="1" fill-rule="evenodd"/></g></g></g></g><g clip-path="url(#ba8c72c215)"><g clip-path="url(#17f06a8fe5)"><g clip-path="url(#ff6174d81b)"><g clip-path="url(#0a8b229ce0)"><path stroke-linecap="butt" transform="matrix(0.201022, 0.162114, -0.162599, 0.201624, 133.31257, 10.347761)" fill="none" stroke-linejoin="miter" d="M 260.941763 102.305675 L 361.851325 124.142668 L 364.773271 118.073493 L 269.17963 101.823621 Z M 260.941763 102.305675 " stroke="#000000" stroke-width="1" stroke-opacity="1" stroke-miterlimit="4"/></g></g></g></g><g clip-path="url(#f4ed23de40)"><g clip-path="url(#cef70f0fac)"><g clip-path="url(#44e26e9469)"><g clip-path="url(#23eb76bdd7)"><path fill="#000000" d="M 174.058594 76.410156 L 190.324219 92.328125 L 192.777344 91.257812 L 177.648438 77.792969 Z M 174.058594 76.410156 " fill-opacity="1" fill-rule="evenodd"/></g></g></g></g><g clip-path="url(#31c01e5561)"><g clip-path="url(#695401bada)"><g clip-path="url(#3975e4aff6)"><g clip-path="url(#ad9a806695)"><path stroke-linecap="butt" transform="matrix(0.201022, 0.162114, -0.162599, 0.201624, 133.31257, 10.347761)" fill="none" stroke-linejoin="miter" d="M 283.404566 99.78253 L 371.126876 108.198919 L 375.919429 99.037029 L 297.586586 95.237955 Z M 283.404566 99.78253 " stroke="#000000" stroke-width="1" stroke-opacity="1" stroke-miterlimit="4"/></g></g></g></g><g clip-path="url(#15ccfa21fa)"><g clip-path="url(#74ba2cc1c3)"><g clip-path="url(#47373ce4b4)"><g clip-path="url(#36c04a5324)"><path fill="#000000" d="M 162.304688 68.171875 L 177.121094 92.714844 L 179.101562 93.75 L 163.398438 68.8125 Z M 162.304688 68.171875 " fill-opacity="1" fill-rule="evenodd"/></g></g></g></g><g clip-path="url(#9e14c61f1f)"><g clip-path="url(#a7a3b30450)"><g clip-path="url(#329bbc5776)"><g clip-path="url(#822a0a83aa)"><path stroke-linecap="butt" transform="matrix(0.201022, 0.162114, -0.162599, 0.201624, 133.31257, 10.347761)" fill="none" stroke-linejoin="miter" d="M 227.949654 103.510982 L 332.269577 141.359905 L 340.755467 139.670983 L 232.803725 102.785429 Z M 227.949654 103.510982 " stroke="#000000" stroke-width="1" stroke-opacity="1" stroke-miterlimit="4"/></g></g></g></g><g clip-path="url(#610be0dd0a)"><g clip-path="url(#a2535d303e)"><g clip-path="url(#667b7cb082)"><g clip-path="url(#0d2af69bd3)"><path fill="#000000" d="M 147.289062 56.550781 L 162.328125 76.429688 L 164.171875 77.835938 L 148.84375 57.320312 Z M 147.289062 56.550781 " fill-opacity="1" fill-rule="evenodd"/></g></g></g></g><g clip-path="url(#f5805ff8e3)"><g clip-path="url(#34376a8477)"><g clip-path="url(#01bac01f80)"><g clip-path="url(#7666fd6e48)"><path stroke-linecap="butt" transform="matrix(0.201022, 0.162114, -0.162599, 0.201624, 133.31257, 10.347761)" fill="none" stroke-linejoin="miter" d="M 154.440109 104.978283 L 248.093632 128.27093 L 257.069485 128.028584 L 160.996905 103.523007 Z M 154.440109 104.978283 " stroke="#000000" stroke-width="1" stroke-opacity="1" stroke-miterlimit="4"/></g></g></g></g><g clip-path="url(#be2ab3d759)"><g clip-path="url(#95d1a7565c)"><g clip-path="url(#8d67386d88)"><g clip-path="url(#f7c483872c)"><path fill="#000000" d="M 153.546875 60.46875 L 166.390625 80.269531 L 168.902344 83.746094 L 155.519531 61.816406 L 153.550781 60.46875 Z M 153.546875 60.46875 " fill-opacity="1" fill-rule="evenodd"/></g></g></g></g><g clip-path="url(#9f399dc52c)"><g clip-path="url(#2a61a3f97b)"><g clip-path="url(#3e2bb9e203)"><g clip-path="url(#28a45884c0)"><path stroke-linecap="butt" transform="matrix(0.201022, 0.162114, -0.162599, 0.201624, 133.31257, 10.347761)" fill="none" stroke-linejoin="miter" d="M 182.826551 101.586444 L 269.672974 129.964817 L 285.694819 134.325393 L 192.048527 100.855595 L 182.838326 101.576976 Z M 182.826551 101.586444 " stroke="#000000" stroke-width="1" stroke-opacity="1" stroke-miterlimit="4"/></g></g></g></g><g clip-path="url(#580aa0de1f)"><g clip-path="url(#9d06f9f4c2)"><g clip-path="url(#1b38599445)"><g clip-path="url(#8d642e0cab)"><path fill="#000000" d="M 158.425781 64.402344 L 171.65625 87.019531 L 174.847656 90.644531 L 159.292969 65.019531 Z M 158.425781 64.402344 " fill-opacity="1" fill-rule="evenodd"/></g></g></g></g><g clip-path="url(#90b9628c20)"><g clip-path="url(#e32abbfbc7)"><g clip-path="url(#91449e1b41)"><g clip-path="url(#b72e496210)"><path stroke-linecap="butt" transform="matrix(0.201022, 0.162114, -0.162599, 0.201624, 133.31257, 10.347761)" fill="none" stroke-linejoin="miter" d="M 207.094625 101.583448 L 301.952912 137.488569 L 320.384322 140.647961 L 211.208811 101.336551 Z M 207.094625 101.583448 " stroke="#000000" stroke-width="1" stroke-opacity="1" stroke-miterlimit="4"/></g></g></g></g><g clip-path="url(#075f01cfe0)"><g clip-path="url(#618cc95dbd)"><g clip-path="url(#22a4fa6b61)"><g clip-path="url(#2b2e8141f0)"><path fill="#000000" d="M 159.308594 74.882812 L 145.226562 55.617188 L 142.238281 54.332031 L 155.867188 73.558594 Z M 159.308594 74.882812 " fill-opacity="1" fill-rule="evenodd"/></g></g></g></g><g clip-path="url(#9ad7bb9f26)"><g clip-path="url(#be769ca444)"><g clip-path="url(#6f16a5c1fc)"><g clip-path="url(#3669692da7)"><path stroke-linecap="butt" transform="matrix(0.201022, 0.162114, -0.162599, 0.201624, 133.31257, 10.347761)" fill="none" stroke-linejoin="miter" d="M 235.231861 130.940261 L 145.953839 107.171234 L 133.822456 110.551357 L 221.639698 135.301174 Z M 235.231861 130.940261 " stroke="#000000" stroke-width="1" stroke-opacity="1" stroke-miterlimit="4"/></g></g></g></g><g clip-path="url(#4e7e9f1a4f)"><g clip-path="url(#8db4eb43c1)"><g clip-path="url(#cb3aaf0c83)"><g clip-path="url(#de6cbf1adb)"><path fill="#000000" d="M 153.535156 73.453125 L 140.203125 53.660156 L 136.464844 52.90625 L 151.007812 73.195312 L 153.535156 73.457031 Z M 153.535156 73.453125 " fill-opacity="1" fill-rule="evenodd"/></g></g></g></g><g clip-path="url(#2b0fa910f0)"><g clip-path="url(#ca889883a7)"><g clip-path="url(#880469ba21)"><g clip-path="url(#ff9f8d8ece)"><path stroke-linecap="butt" transform="matrix(0.201022, 0.162114, -0.162599, 0.201624, 133.31257, 10.347761)" fill="none" stroke-linejoin="miter" d="M 214.354027 140.636074 L 126.0548 113.464567 L 112.954117 120.25891 L 206.109316 145.986499 L 214.363522 140.647813 Z M 214.354027 140.636074 " stroke="#000000" stroke-width="1" stroke-opacity="1" stroke-miterlimit="4"/></g></g></g></g><g clip-path="url(#11f68370ef)"><g clip-path="url(#867b8f8889)"><g clip-path="url(#7075233072)"><g clip-path="url(#766dd25488)"><path fill="#000000" d="M 148.539062 73.460938 L 134.367188 53.3125 L 132.078125 52.757812 L 146.015625 73.203125 Z M 148.539062 73.460938 " fill-opacity="1" fill-rule="evenodd"/></g></g></g></g><g clip-path="url(#5517ddf118)"><g clip-path="url(#595787e4c0)"><g clip-path="url(#0726681f29)"><g clip-path="url(#c1062435df)"><path stroke-linecap="butt" transform="matrix(0.201022, 0.162114, -0.162599, 0.201624, 133.31257, 10.347761)" fill="none" stroke-linejoin="miter" d="M 199.313608 152.767975 L 107.618809 126.563624 L 99.370682 130.444373 L 191.080671 158.108932 Z M 199.313608 152.767975 " stroke="#000000" stroke-width="1" stroke-opacity="1" stroke-miterlimit="4"/></g></g></g></g><g clip-path="url(#c7b1a79925)"><g clip-path="url(#f8dc3fdca2)"><g clip-path="url(#b0b4ba8ac6)"><g clip-path="url(#ce81529c89)"><path fill="#000000" d="M 143.929688 74.589844 L 128.3125 52.632812 L 126.3125 53.117188 L 142.398438 75.289062 Z M 143.929688 74.589844 " fill-opacity="1" fill-rule="evenodd"/></g></g></g></g><g clip-path="url(#23912fc0eb)"><g clip-path="url(#4479394a53)"><g clip-path="url(#fff074dd0c)"><g clip-path="url(#69c4ef2ba0)"><path stroke-linecap="butt" transform="matrix(0.201022, 0.162114, -0.162599, 0.201624, 133.31257, 10.347761)" fill="none" stroke-linejoin="miter" d="M 188.164038 167.331794 L 87.716342 139.195002 L 82.865302 145.497824 L 185.248169 173.144221 Z M 188.164038 167.331794 " stroke="#000000" stroke-width="1" stroke-opacity="1" stroke-miterlimit="4"/></g></g></g></g><g clip-path="url(#3d370ce67c)"><g clip-path="url(#4bc31bb7e5)"><g clip-path="url(#9afbc61f4d)"><g clip-path="url(#5e5c60e82f)"><path fill="#000000" d="M 122.824219 53.855469 L 139.101562 76.183594 L 137.46875 77.613281 L 120.414062 53.847656 Z M 122.824219 53.855469 " fill-opacity="1" fill-rule="evenodd"/></g></g></g></g><g clip-path="url(#464272cc21)"><g clip-path="url(#e103f1e8c4)"><g clip-path="url(#c92cda244a)"><g clip-path="url(#8c1259c3d7)"><path stroke-linecap="butt" transform="matrix(0.201022, 0.162114, -0.162599, 0.201624, 133.31257, 10.347761)" fill="none" stroke-linejoin="miter" d="M 74.145431 156.170661 L 177.48506 183.82274 L 176.038702 192.076549 L 66.861659 161.988384 Z M 74.145431 156.170661 " stroke="#000000" stroke-width="1" stroke-opacity="1" stroke-miterlimit="4"/></g></g></g></g><g clip-path="url(#d69b95e26f)"><g clip-path="url(#63c66596ec)"><g clip-path="url(#5162c56f7a)"><g clip-path="url(#0ebea8493c)"><path fill="#000000" d="M 118.117188 54.898438 L 134.25 79.210938 L 131.828125 80.8125 L 115.800781 55.777344 L 118.117188 54.902344 Z M 118.117188 54.898438 " fill-opacity="1" fill-rule="evenodd"/></g></g></g></g><g clip-path="url(#653f919b40)"><g clip-path="url(#142fd18650)"><g clip-path="url(#7aa3ea88c9)"><g clip-path="url(#0849508f3a)"><path stroke-linecap="butt" transform="matrix(0.201022, 0.162114, -0.162599, 0.201624, 133.31257, 10.347761)" fill="none" stroke-linejoin="miter" d="M 62.492603 170.712894 L 170.220257 204.678789 L 166.813277 215.36148 L 57.646877 178.968214 L 62.502099 170.724633 Z M 62.492603 170.712894 " stroke="#000000" stroke-width="1" stroke-opacity="1" stroke-miterlimit="4"/></g></g></g></g><g clip-path="url(#66ee1a5b2d)"><g clip-path="url(#dc174edd0b)"><g clip-path="url(#446e386558)"><g clip-path="url(#4b42707185)"><path fill="#000000" d="M 112.1875 57.0625 L 128.410156 82.253906 L 126.265625 83.917969 L 109.929688 57.664062 Z M 112.1875 57.0625 " fill-opacity="1" fill-rule="evenodd"/></g></g></g></g><g clip-path="url(#eb80536c0a)"><g clip-path="url(#2fbe65d8be)"><g clip-path="url(#3bdb662767)"><g clip-path="url(#5c5ecc6ad6)"><path stroke-linecap="butt" transform="matrix(0.201022, 0.162114, -0.162599, 0.201624, 133.31257, 10.347761)" fill="none" stroke-linejoin="miter" d="M 49.879587 191.587492 L 160.014522 227.976972 L 157.595449 238.175326 L 44.536301 198.867319 Z M 49.879587 191.587492 " stroke="#000000" stroke-width="1" stroke-opacity="1" stroke-miterlimit="4"/></g></g></g></g><g clip-path="url(#f722788a43)"><g clip-path="url(#983519b815)"><g clip-path="url(#2711cd3edf)"><g clip-path="url(#18202e9b80)"><path fill="#000000" d="M 106.691406 59.089844 C 112.207031 68.21875 116.445312 78.925781 123.234375 86.476562 L 121.777344 87.886719 C 113.425781 78.550781 110.277344 69.679688 104.527344 60.574219 Z M 106.691406 59.089844 " fill-opacity="1" fill-rule="evenodd"/></g></g></g></g><g clip-path="url(#240a0409c6)"><g clip-path="url(#f012e0962b)"><g clip-path="url(#58761e7270)"><g clip-path="url(#287248a012)"><path stroke-linecap="butt" transform="matrix(0.201022, 0.162114, -0.162599, 0.201624, 133.31257, 10.347761)" fill="none" stroke-linejoin="miter" d="M 38.241185 211.000367 C 77.057398 225.067422 115.859546 246.972871 154.678048 253.210998 L 153.71406 260.980091 C 105.846402 253.163973 74.792152 234.134645 35.32645 220.706052 Z M 38.241185 211.000367 " stroke="#000000" stroke-width="1" stroke-opacity="1" stroke-miterlimit="4"/></g></g></g></g><g clip-path="url(#2cc28af85f)"><g clip-path="url(#fa25607fdc)"><g clip-path="url(#4f4b622ca5)"><g clip-path="url(#8888dc20df)"><path fill="#000000" d="M 101.5625 62.054688 C 107.363281 71.359375 110.0625 81.003906 118.964844 89.976562 L 118.335938 90.757812 L 99.125 63.480469 Z M 101.5625 62.054688 " fill-opacity="1" fill-rule="evenodd"/></g></g></g></g><g clip-path="url(#ade0921723)"><g clip-path="url(#6c32464e4d)"><g clip-path="url(#f20d058be9)"><g clip-path="url(#5e501a9409)"><path stroke-linecap="butt" transform="matrix(0.201022, 0.162114, -0.162599, 0.201624, 133.31257, 10.347761)" fill="none" stroke-linejoin="miter" d="M 29.988476 232.340753 C 70.091511 246.244975 101.671804 268.687388 150.316572 274.076897 L 150.319985 277.948948 L 26.107104 242.533046 Z M 29.988476 232.340753 " stroke="#000000" stroke-width="1" stroke-opacity="1" stroke-miterlimit="4"/></g></g></g></g><g clip-path="url(#07290da2d3)"><g clip-path="url(#66b6d57063)"><g clip-path="url(#4d5982907c)"><g clip-path="url(#ed472aca0a)"><path stroke-linecap="butt" transform="matrix(0.201022, 0.162114, -0.162599, 0.201624, 133.31257, 10.347761)" fill="none" stroke-linejoin="miter" d="M 27.565937 276.504473 L 136.724792 275.531406 C 139.28669 255.996202 143.103879 241.49637 146.918788 227.017745 L 47.449469 223.609823 C 39.90475 237.561314 33.874735 257.637653 27.565937 276.504473 Z M 27.565937 276.504473 " stroke="#ffffff" stroke-width="1" stroke-opacity="0.941" stroke-miterlimit="4"/></g></g></g></g><g clip-path="url(#6eeec9f9ad)"><g clip-path="url(#a131e8d4ed)"><g clip-path="url(#8f98fc3792)"><g clip-path="url(#d10c52673d)"><path stroke-linecap="butt" transform="matrix(0.201022, 0.162114, -0.162599, 0.201624, 133.31257, 10.347761)" fill="none" stroke-linejoin="miter" d="M 51.339952 216.335674 L 148.863086 219.235399 C 153.765037 202.449071 160.801942 186.716625 168.267281 171.201545 L 82.874012 163.934845 C 65.270946 187.601099 58.994059 201.366279 51.339952 216.335674 Z M 51.339952 216.335674 " stroke="#ffffff" stroke-width="1" stroke-opacity="0.941" stroke-miterlimit="4"/><path stroke-linecap="butt" transform="matrix(0.201022, 0.162114, -0.162599, 0.201624, 133.31257, 10.347761)" fill="none" stroke-linejoin="miter" d="M 51.339952 216.335674 L 148.863086 219.235399 C 153.765037 202.449071 160.801942 186.716625 168.267281 171.201545 L 82.874012 163.934845 C 65.270946 187.601099 58.994059 201.366279 51.339952 216.335674 Z M 51.339952 216.335674 " stroke="#ffffff" stroke-width="1" stroke-opacity="0.941" stroke-miterlimit="4"/></g></g></g></g><g clip-path="url(#d6ea49aa1b)"><g clip-path="url(#476e548dfb)"><g clip-path="url(#23f26b3c3f)"><g clip-path="url(#fb64dcc016)"><path stroke-linecap="butt" transform="matrix(0.201022, 0.162114, -0.162599, 0.201624, 133.31257, 10.347761)" fill="none" stroke-linejoin="miter" d="M 85.784182 159.076325 L 170.218411 166.358549 C 181.916067 145.193121 198.642494 135.289782 210.476487 126.569069 L 147.891275 116.86973 C 128.828596 122.587464 97.337116 145.563735 85.784182 159.076325 Z M 85.784182 159.076325 " stroke="#ffffff" stroke-width="1" stroke-opacity="0.941" stroke-miterlimit="4"/></g></g></g></g><g clip-path="url(#a15c2fe905)"><g clip-path="url(#73de78fc8c)"><g clip-path="url(#b9affc00ee)"><g clip-path="url(#5bcb598714)"><path stroke-linecap="butt" transform="matrix(0.201022, 0.162114, -0.162599, 0.201624, 133.31257, 10.347761)" fill="none" stroke-linejoin="miter" d="M 156.069514 114.440101 L 214.28872 124.627558 C 235.68614 118.505013 234.959552 116.357491 265.715286 120.747626 L 220.101851 110.072819 C 201.043736 110.943389 180.699561 109.166951 156.069514 114.440101 Z M 156.069514 114.440101 " stroke="#ffffff" stroke-width="1" stroke-opacity="0.941" stroke-miterlimit="4"/></g></g></g></g><g clip-path="url(#d995a70c19)"><g clip-path="url(#dd40702e67)"><g clip-path="url(#f54775c7f0)"><g clip-path="url(#23b2abc0c3)"><path stroke-linecap="butt" transform="matrix(0.201022, 0.162114, -0.162599, 0.201624, 133.31257, 10.347761)" fill="none" stroke-linejoin="miter" d="M 237.646771 110.070193 L 289.085844 125.592929 C 321.684451 131.252417 332.247182 131.458436 351.193652 115.410942 L 303.155847 100.369519 C 289.271976 109.84722 269.584877 114.768957 237.646771 110.070193 Z M 237.646771 110.070193 " stroke="#ffffff" stroke-width="1" stroke-opacity="1" stroke-miterlimit="4"/></g></g></g></g><g clip-path="url(#993e235701)"><g clip-path="url(#084cf02d40)"><g clip-path="url(#ca562d6de2)"><g clip-path="url(#551a8a3e32)"><path stroke-linecap="butt" transform="matrix(0.201022, 0.162114, -0.162599, 0.201624, 133.31257, 10.347761)" fill="none" stroke-linejoin="miter" d="M 306.555599 97.461604 L 354.582011 112.008464 C 363.018536 101.970302 370.149254 87.867337 374.473122 71.255203 L 325.961291 65.42945 C 321.455494 79.029904 318.457585 85.005166 306.555599 97.461604 Z M 306.555599 97.461604 " stroke="#ffffff" stroke-width="1" stroke-opacity="0.941" stroke-miterlimit="4"/></g></g></g></g><g clip-path="url(#39873cd016)"><g clip-path="url(#623d7d752b)"><g clip-path="url(#8da232a70d)"><g clip-path="url(#e6ab387406)"><path stroke-linecap="butt" transform="matrix(0.201022, 0.162114, -0.162599, 0.201624, 133.31257, 10.347761)" fill="none" stroke-linejoin="miter" d="M 327.418658 60.576608 L 375.936568 64.944425 C 381.037545 47.106868 382.937792 33.528374 384.187031 20.802676 L 333.233723 21.279748 C 332.522304 35.607282 330.712834 48.841552 327.418658 60.576608 Z M 327.418658 60.576608 " stroke="#ffffff" stroke-width="1" stroke-opacity="1" stroke-miterlimit="4"/></g></g></g></g><g fill="#000000" fill-opacity="1"><g transform="translate(82.370678, 124.717614)"><g><path d="M 14.171875 -24.34375 L 14.734375 -24.34375 C 15.898438 -24.34375 17.03125 -24.179688 18.125 -23.859375 C 19.21875 -23.535156 20.21875 -23.0625 21.125 -22.4375 C 22.03125 -21.820312 22.816406 -21.0625 23.484375 -20.15625 C 24.148438 -19.257812 24.640625 -18.226562 24.953125 -17.0625 C 25.046875 -16.65625 25.113281 -16.3125 25.15625 -16.03125 C 25.207031 -15.757812 25.234375 -15.539062 25.234375 -15.375 L 25.234375 -15.171875 L 18.171875 -15.171875 L 18.015625 -15.53125 C 17.878906 -16 17.660156 -16.484375 17.359375 -16.984375 C 17.066406 -17.484375 16.753906 -17.84375 16.421875 -18.0625 C 15.921875 -18.488281 15.238281 -18.75 14.375 -18.84375 L 14.171875 -18.875 Z M 12.5625 -24.296875 C 12.613281 -24.328125 12.753906 -24.34375 12.984375 -24.34375 L 13.234375 -24.34375 L 13.234375 -18.984375 L 12.890625 -18.84375 C 12.191406 -18.582031 11.566406 -18.097656 11.015625 -17.390625 C 10.472656 -16.691406 10.035156 -15.804688 9.703125 -14.734375 C 9.515625 -14.140625 9.382812 -13.457031 9.3125 -12.6875 C 9.238281 -11.914062 9.226562 -11.078125 9.28125 -10.171875 C 9.300781 -9.597656 9.359375 -8.941406 9.453125 -8.203125 C 9.546875 -7.472656 9.703125 -6.753906 9.921875 -6.046875 C 10.140625 -5.347656 10.429688 -4.707031 10.796875 -4.125 C 11.160156 -3.539062 11.640625 -3.101562 12.234375 -2.8125 C 12.359375 -2.769531 12.484375 -2.726562 12.609375 -2.6875 C 12.742188 -2.65625 12.867188 -2.613281 12.984375 -2.5625 L 13.3125 -2.5 L 13.3125 2.921875 L 12.734375 2.890625 C 9.503906 2.703125 6.972656 1.695312 5.140625 -0.125 C 3.304688 -1.945312 2.175781 -4.390625 1.75 -7.453125 C 1.726562 -7.691406 1.703125 -7.988281 1.671875 -8.34375 C 1.648438 -8.707031 1.640625 -9.148438 1.640625 -9.671875 C 1.585938 -10.742188 1.585938 -11.550781 1.640625 -12.09375 C 1.953125 -15.375 3.035156 -18.09375 4.890625 -20.25 C 6.742188 -22.40625 9.300781 -23.753906 12.5625 -24.296875 Z M 18.0625 -6.0625 L 18.171875 -6.3125 L 21.8125 -6.3125 C 24.207031 -6.363281 25.40625 -6.351562 25.40625 -6.28125 C 25.40625 -6.226562 25.367188 -5.96875 25.296875 -5.5 C 25.066406 -4.164062 24.644531 -2.976562 24.03125 -1.9375 C 23.425781 -0.90625 22.671875 -0.0351562 21.765625 0.671875 C 20.859375 1.390625 19.828125 1.9375 18.671875 2.3125 C 17.523438 2.695312 16.285156 2.898438 14.953125 2.921875 L 14.171875 2.96875 L 14.171875 -2.390625 L 14.453125 -2.421875 C 15.378906 -2.546875 16.128906 -2.867188 16.703125 -3.390625 C 17.347656 -4.054688 17.800781 -4.945312 18.0625 -6.0625 Z M 18.0625 -6.0625 "/></g></g></g><g fill="#000000" fill-opacity="1"><g transform="translate(107.242352, 124.717614)"><g><path d="M 2.140625 -25.265625 L 1.859375 -25.40625 L 9.890625 -25.40625 L 9.890625 2.640625 L 2.640625 2.640625 L 2.640625 -10.8125 C 2.640625 -20.019531 2.601562 -24.695312 2.53125 -24.84375 C 2.457031 -24.957031 2.328125 -25.097656 2.140625 -25.265625 Z M 14.34375 -18.171875 L 15.625 -18.171875 C 16.457031 -18.140625 17.195312 -18.03125 17.84375 -17.84375 C 18.488281 -17.65625 19.046875 -17.367188 19.515625 -16.984375 C 19.992188 -16.609375 20.394531 -16.113281 20.71875 -15.5 C 21.039062 -14.894531 21.296875 -14.15625 21.484375 -13.28125 L 21.625 -12.484375 L 21.703125 2.640625 L 14.671875 2.640625 L 14.625 -4.28125 L 14.625 -10.921875 L 14.53125 -11.34375 C 14.363281 -11.800781 14.140625 -12.125 13.859375 -12.3125 C 13.585938 -12.5 13.203125 -12.617188 12.703125 -12.671875 C 11.941406 -12.710938 11.320312 -12.507812 10.84375 -12.0625 L 10.59375 -11.8125 L 10.59375 -16.28125 L 11.0625 -16.703125 C 11.320312 -16.910156 11.554688 -17.09375 11.765625 -17.25 C 11.984375 -17.40625 12.21875 -17.535156 12.46875 -17.640625 C 12.71875 -17.753906 12.988281 -17.851562 13.28125 -17.9375 C 13.582031 -18.019531 13.9375 -18.097656 14.34375 -18.171875 Z M 14.34375 -18.171875 "/></g></g></g><g fill="#000000" fill-opacity="1"><g transform="translate(129.47336, 124.717614)"><g><path d="M 2.53125 -25.296875 L 9.640625 -25.296875 L 9.640625 -19.84375 L 2.53125 -19.84375 Z M 1.921875 -17.765625 C 1.878906 -17.816406 1.867188 -17.835938 1.890625 -17.828125 C 1.910156 -17.816406 1.945312 -17.8125 2 -17.8125 C 2.113281 -17.832031 2.46875 -17.84375 3.0625 -17.84375 C 3.664062 -17.84375 4.523438 -17.84375 5.640625 -17.84375 L 9.5625 -17.84375 L 9.5625 2.71875 L 2.53125 2.71875 L 2.53125 -8.3125 C 2.53125 -10.550781 2.53125 -12.3125 2.53125 -13.59375 C 2.53125 -14.882812 2.519531 -15.71875 2.5 -16.09375 C 2.445312 -16.851562 2.363281 -17.316406 2.25 -17.484375 C 2.175781 -17.609375 2.066406 -17.703125 1.921875 -17.765625 Z M 1.921875 -17.765625 "/></g></g></g><g fill="#000000" fill-opacity="1"><g transform="translate(139.749963, 124.717614)"><g><path d="M 3.03125 -22.515625 C 3.175781 -22.515625 3.34375 -22.523438 3.53125 -22.546875 C 3.71875 -22.546875 3.929688 -22.550781 4.171875 -22.5625 C 4.410156 -22.582031 4.695312 -22.59375 5.03125 -22.59375 L 11.3125 -22.59375 L 11.3125 -17.84375 L 14.8125 -17.84375 L 14.8125 -12.3125 L 11.28125 -12.3125 L 11.34375 -3.46875 L 11.453125 -3.109375 C 11.671875 -2.628906 11.992188 -2.28125 12.421875 -2.0625 C 12.585938 -1.96875 12.96875 -1.921875 13.5625 -1.921875 L 14.421875 -1.921875 L 14.421875 2.75 L 10.890625 2.71875 L 9.3125 2.71875 C 8.71875 2.71875 8.140625 2.664062 7.578125 2.5625 C 7.023438 2.46875 6.515625 2.296875 6.046875 2.046875 C 5.585938 1.796875 5.195312 1.457031 4.875 1.03125 C 4.550781 0.601562 4.316406 0.046875 4.171875 -0.640625 C 4.097656 -0.972656 4.0625 -3.066406 4.0625 -6.921875 L 4.0625 -12.3125 L 1.328125 -12.3125 L 1.328125 -17.84375 L 4.0625 -17.84375 L 4.0625 -19.515625 C 4.0625 -20.609375 4.03125 -21.273438 3.96875 -21.515625 C 3.863281 -21.710938 3.722656 -21.910156 3.546875 -22.109375 C 3.367188 -22.304688 3.195312 -22.441406 3.03125 -22.515625 Z M 3.03125 -22.515625 "/></g></g></g><g fill="#000000" fill-opacity="1"><g transform="translate(154.02326, 124.717614)"><g><path d="M 15.34375 -18.171875 L 15.703125 -18.171875 L 15.671875 -15.171875 L 15.671875 -11.484375 L 15.09375 -11.53125 C 13.851562 -11.601562 12.796875 -11.410156 11.921875 -10.953125 C 11.421875 -10.691406 10.972656 -10.226562 10.578125 -9.5625 C 10.191406 -8.894531 9.925781 -8.125 9.78125 -7.25 C 9.707031 -6.882812 9.671875 -5.132812 9.671875 -2 L 9.671875 2.71875 L 2.5 2.71875 L 2.5 -7.25 C 2.5 -10.601562 2.492188 -13.085938 2.484375 -14.703125 C 2.472656 -16.316406 2.441406 -17.148438 2.390625 -17.203125 C 2.273438 -17.460938 2.109375 -17.640625 1.890625 -17.734375 C 1.867188 -17.753906 1.878906 -17.78125 1.921875 -17.8125 C 2.046875 -17.832031 2.421875 -17.84375 3.046875 -17.84375 C 3.679688 -17.84375 4.566406 -17.84375 5.703125 -17.84375 L 9.671875 -17.84375 L 9.671875 -14.34375 L 9.921875 -14.84375 C 10.367188 -15.914062 11.097656 -16.738281 12.109375 -17.3125 C 13.117188 -17.882812 14.195312 -18.171875 15.34375 -18.171875 Z M 15.34375 -18.171875 "/></g></g></g><g fill="#000000" fill-opacity="1"><g transform="translate(168.439293, 124.717614)"><g><path d="M 11.78125 -18.171875 C 12.78125 -18.171875 13.75 -18.097656 14.6875 -17.953125 C 15.625 -17.804688 16.476562 -17.539062 17.25 -17.15625 C 18.03125 -16.78125 18.707031 -16.257812 19.28125 -15.59375 C 19.863281 -14.925781 20.3125 -14.070312 20.625 -13.03125 L 20.8125 -12.484375 L 20.8125 2.71875 L 13.78125 2.71875 L 13.78125 -6.140625 L 11.8125 -6.109375 L 9.8125 -6.109375 L 9.421875 -5.921875 C 9.015625 -5.734375 8.753906 -5.34375 8.640625 -4.75 C 8.441406 -3.84375 8.617188 -3.101562 9.171875 -2.53125 C 9.523438 -2.101562 10.15625 -1.890625 11.0625 -1.890625 C 11.394531 -1.890625 11.726562 -1.914062 12.0625 -1.96875 C 12.394531 -2.03125 12.703125 -2.132812 12.984375 -2.28125 C 13.035156 -2.28125 13.0625 -2.257812 13.0625 -2.21875 C 13.082031 -2.113281 13.09375 -1.421875 13.09375 -0.140625 L 13.09375 2 L 12.734375 2.21875 C 12.117188 2.519531 11.453125 2.734375 10.734375 2.859375 C 10.023438 2.992188 9.328125 3.0625 8.640625 3.0625 C 8.234375 3.0625 7.847656 3.046875 7.484375 3.015625 C 7.128906 2.984375 6.785156 2.914062 6.453125 2.8125 C 4.691406 2.34375 3.320312 1.414062 2.34375 0.03125 C 1.375 -1.34375 0.925781 -2.957031 1 -4.8125 C 1.144531 -7.832031 2.765625 -9.644531 5.859375 -10.25 C 6.191406 -10.289062 7.601562 -10.335938 10.09375 -10.390625 L 13.78125 -10.421875 L 13.734375 -11.0625 C 13.691406 -11.96875 13.441406 -12.550781 12.984375 -12.8125 C 12.535156 -13.070312 11.90625 -13.203125 11.09375 -13.203125 C 10.957031 -13.203125 10.765625 -13.191406 10.515625 -13.171875 C 10.265625 -13.148438 10.003906 -13.109375 9.734375 -13.046875 C 9.472656 -12.984375 9.234375 -12.898438 9.015625 -12.796875 C 8.804688 -12.691406 8.664062 -12.539062 8.59375 -12.34375 L 8.53125 -12.171875 L 2 -12.171875 C 2 -12.316406 2.203125 -12.816406 2.609375 -13.671875 C 2.960938 -14.304688 3.394531 -14.910156 3.90625 -15.484375 C 4.414062 -16.054688 4.910156 -16.507812 5.390625 -16.84375 C 6.367188 -17.457031 7.394531 -17.832031 8.46875 -17.96875 C 9.550781 -18.101562 10.65625 -18.171875 11.78125 -18.171875 Z M 11.78125 -18.171875 "/></g></g></g><g fill="#000000" fill-opacity="1"><g transform="translate(189.778185, 124.717614)"><g><path d="M 13.421875 -18.015625 C 13.941406 -18.085938 14.578125 -18.113281 15.328125 -18.09375 C 16.078125 -18.070312 16.675781 -18 17.125 -17.875 C 18.289062 -17.570312 19.242188 -16.882812 19.984375 -15.8125 C 20.078125 -15.625 20.132812 -15.53125 20.15625 -15.53125 C 20.1875 -15.53125 20.34375 -15.671875 20.625 -15.953125 C 21.789062 -17.066406 23.207031 -17.753906 24.875 -18.015625 C 26.019531 -18.179688 27.113281 -18.125 28.15625 -17.84375 C 29.207031 -17.5625 30.050781 -17.097656 30.6875 -16.453125 C 31.59375 -15.546875 32.25 -14.191406 32.65625 -12.390625 C 32.695312 -12.054688 32.734375 -9.472656 32.765625 -4.640625 L 32.796875 2.71875 L 25.625 2.71875 L 25.625 -11.171875 L 25.4375 -11.59375 C 25.25 -12.1875 24.929688 -12.535156 24.484375 -12.640625 C 23.648438 -12.898438 22.945312 -12.882812 22.375 -12.59375 C 21.894531 -12.351562 21.488281 -11.734375 21.15625 -10.734375 L 21.015625 -10.3125 L 21.015625 -3.859375 L 20.984375 2.71875 L 13.78125 2.71875 L 13.78125 -11.421875 L 13.671875 -11.78125 C 13.429688 -12.394531 12.894531 -12.75 12.0625 -12.84375 C 11.375 -12.894531 10.800781 -12.707031 10.34375 -12.28125 C 9.96875 -11.875 9.695312 -11.335938 9.53125 -10.671875 C 9.507812 -10.546875 9.484375 -10.398438 9.453125 -10.234375 C 9.429688 -10.078125 9.421875 -9.84375 9.421875 -9.53125 C 9.398438 -9.21875 9.390625 -8.582031 9.390625 -7.625 C 9.390625 -6.675781 9.390625 -5.394531 9.390625 -3.78125 L 9.390625 2.71875 L 2.28125 2.71875 L 2.28125 -9.421875 C 2.28125 -11.515625 2.28125 -13.140625 2.28125 -14.296875 C 2.28125 -15.453125 2.269531 -16.207031 2.25 -16.5625 C 2.195312 -17.25 2.101562 -17.628906 1.96875 -17.703125 C 1.9375 -17.722656 1.910156 -17.734375 1.890625 -17.734375 C 1.816406 -17.785156 1.851562 -17.820312 2 -17.84375 L 9.390625 -17.84375 L 9.390625 -15.421875 L 9.640625 -15.78125 C 10.492188 -17.039062 11.753906 -17.785156 13.421875 -18.015625 Z M 13.421875 -18.015625 "/></g></g></g><g fill="#000000" fill-opacity="1"><g transform="translate(94.592812, 145.508148)"><g><path d="M 1.03125 -7.734375 L 2.46875 -7.734375 L 2.46875 0 L 1.03125 0 Z M 1.03125 -7.734375 "/></g></g></g><g fill="#000000" fill-opacity="1"><g transform="translate(100.135567, 145.508148)"><g><path d="M 2.609375 -6.515625 L 0.046875 -6.515625 L 0.046875 -7.734375 L 6.609375 -7.734375 L 6.609375 -6.515625 L 4.046875 -6.515625 L 4.046875 0 L 2.609375 0 Z M 2.609375 -6.515625 "/></g></g></g><g fill="#000000" fill-opacity="1"><g transform="translate(108.801861, 145.508148)"><g><path d="M 1.359375 -8.28125 C 1.617188 -8.28125 1.832031 -8.191406 2 -8.015625 C 2.164062 -7.847656 2.25 -7.632812 2.25 -7.375 C 2.25 -7.238281 2.234375 -7.109375 2.203125 -6.984375 C 2.171875 -6.859375 2.109375 -6.671875 2.015625 -6.421875 L 1.4375 -4.84375 L 0.546875 -4.84375 L 0.984375 -6.546875 C 0.816406 -6.609375 0.6875 -6.707031 0.59375 -6.84375 C 0.507812 -6.988281 0.46875 -7.164062 0.46875 -7.375 C 0.46875 -7.632812 0.550781 -7.847656 0.71875 -8.015625 C 0.882812 -8.191406 1.097656 -8.28125 1.359375 -8.28125 Z M 1.359375 -8.28125 "/></g></g></g><g fill="#000000" fill-opacity="1"><g transform="translate(113.516828, 145.508148)"><g><path d="M 3.4375 0.109375 C 2.84375 0.109375 2.265625 0.0234375 1.703125 -0.140625 C 1.148438 -0.304688 0.710938 -0.53125 0.390625 -0.8125 L 0.890625 -1.9375 C 1.203125 -1.6875 1.585938 -1.476562 2.046875 -1.3125 C 2.503906 -1.15625 2.96875 -1.078125 3.4375 -1.078125 C 4.007812 -1.078125 4.4375 -1.171875 4.71875 -1.359375 C 5 -1.546875 5.140625 -1.789062 5.140625 -2.09375 C 5.140625 -2.3125 5.0625 -2.488281 4.90625 -2.625 C 4.75 -2.769531 4.546875 -2.882812 4.296875 -2.96875 C 4.054688 -3.050781 3.726562 -3.144531 3.3125 -3.25 C 2.726562 -3.382812 2.253906 -3.519531 1.890625 -3.65625 C 1.523438 -3.800781 1.207031 -4.019531 0.9375 -4.3125 C 0.675781 -4.613281 0.546875 -5.019531 0.546875 -5.53125 C 0.546875 -5.957031 0.660156 -6.34375 0.890625 -6.6875 C 1.128906 -7.039062 1.484375 -7.320312 1.953125 -7.53125 C 2.421875 -7.738281 2.992188 -7.84375 3.671875 -7.84375 C 4.140625 -7.84375 4.601562 -7.78125 5.0625 -7.65625 C 5.519531 -7.539062 5.910156 -7.375 6.234375 -7.15625 L 5.78125 -6.046875 C 5.445312 -6.242188 5.09375 -6.394531 4.71875 -6.5 C 4.351562 -6.601562 4 -6.65625 3.65625 -6.65625 C 3.09375 -6.65625 2.671875 -6.554688 2.390625 -6.359375 C 2.117188 -6.171875 1.984375 -5.914062 1.984375 -5.59375 C 1.984375 -5.375 2.0625 -5.191406 2.21875 -5.046875 C 2.375 -4.910156 2.570312 -4.800781 2.8125 -4.71875 C 3.0625 -4.644531 3.394531 -4.554688 3.8125 -4.453125 C 4.382812 -4.316406 4.851562 -4.175781 5.21875 -4.03125 C 5.59375 -3.894531 5.910156 -3.675781 6.171875 -3.375 C 6.429688 -3.082031 6.5625 -2.6875 6.5625 -2.1875 C 6.5625 -1.757812 6.441406 -1.375 6.203125 -1.03125 C 5.972656 -0.6875 5.625 -0.410156 5.15625 -0.203125 C 4.6875 0.00390625 4.113281 0.109375 3.4375 0.109375 Z M 3.4375 0.109375 "/></g></g></g><g fill="#000000" fill-opacity="1"><g transform="translate(122.481124, 145.508148)"><g/></g></g><g fill="#000000" fill-opacity="1"><g transform="translate(127.549283, 145.508148)"><g><path d="M 3.4375 0.109375 C 2.84375 0.109375 2.265625 0.0234375 1.703125 -0.140625 C 1.148438 -0.304688 0.710938 -0.53125 0.390625 -0.8125 L 0.890625 -1.9375 C 1.203125 -1.6875 1.585938 -1.476562 2.046875 -1.3125 C 2.503906 -1.15625 2.96875 -1.078125 3.4375 -1.078125 C 4.007812 -1.078125 4.4375 -1.171875 4.71875 -1.359375 C 5 -1.546875 5.140625 -1.789062 5.140625 -2.09375 C 5.140625 -2.3125 5.0625 -2.488281 4.90625 -2.625 C 4.75 -2.769531 4.546875 -2.882812 4.296875 -2.96875 C 4.054688 -3.050781 3.726562 -3.144531 3.3125 -3.25 C 2.726562 -3.382812 2.253906 -3.519531 1.890625 -3.65625 C 1.523438 -3.800781 1.207031 -4.019531 0.9375 -4.3125 C 0.675781 -4.613281 0.546875 -5.019531 0.546875 -5.53125 C 0.546875 -5.957031 0.660156 -6.34375 0.890625 -6.6875 C 1.128906 -7.039062 1.484375 -7.320312 1.953125 -7.53125 C 2.421875 -7.738281 2.992188 -7.84375 3.671875 -7.84375 C 4.140625 -7.84375 4.601562 -7.78125 5.0625 -7.65625 C 5.519531 -7.539062 5.910156 -7.375 6.234375 -7.15625 L 5.78125 -6.046875 C 5.445312 -6.242188 5.09375 -6.394531 4.71875 -6.5 C 4.351562 -6.601562 4 -6.65625 3.65625 -6.65625 C 3.09375 -6.65625 2.671875 -6.554688 2.390625 -6.359375 C 2.117188 -6.171875 1.984375 -5.914062 1.984375 -5.59375 C 1.984375 -5.375 2.0625 -5.191406 2.21875 -5.046875 C 2.375 -4.910156 2.570312 -4.800781 2.8125 -4.71875 C 3.0625 -4.644531 3.394531 -4.554688 3.8125 -4.453125 C 4.382812 -4.316406 4.851562 -4.175781 5.21875 -4.03125 C 5.59375 -3.894531 5.910156 -3.675781 6.171875 -3.375 C 6.429688 -3.082031 6.5625 -2.6875 6.5625 -2.1875 C 6.5625 -1.757812 6.441406 -1.375 6.203125 -1.03125 C 5.972656 -0.6875 5.625 -0.410156 5.15625 -0.203125 C 4.6875 0.00390625 4.113281 0.109375 3.4375 0.109375 Z M 3.4375 0.109375 "/></g></g></g><g fill="#000000" fill-opacity="1"><g transform="translate(136.51358, 145.508148)"><g><path d="M 7.90625 -7.734375 L 7.90625 0 L 6.46875 0 L 6.46875 -3.3125 L 2.46875 -3.3125 L 2.46875 0 L 1.03125 0 L 1.03125 -7.734375 L 2.46875 -7.734375 L 2.46875 -4.546875 L 6.46875 -4.546875 L 6.46875 -7.734375 Z M 7.90625 -7.734375 "/></g></g></g><g fill="#000000" fill-opacity="1"><g transform="translate(147.475617, 145.508148)"><g><path d="M 4.65625 0.109375 C 3.863281 0.109375 3.148438 -0.0625 2.515625 -0.40625 C 1.878906 -0.75 1.378906 -1.222656 1.015625 -1.828125 C 0.660156 -2.429688 0.484375 -3.109375 0.484375 -3.859375 C 0.484375 -4.617188 0.660156 -5.300781 1.015625 -5.90625 C 1.378906 -6.507812 1.878906 -6.984375 2.515625 -7.328125 C 3.148438 -7.671875 3.863281 -7.84375 4.65625 -7.84375 C 5.4375 -7.84375 6.144531 -7.671875 6.78125 -7.328125 C 7.414062 -6.984375 7.910156 -6.507812 8.265625 -5.90625 C 8.628906 -5.300781 8.8125 -4.617188 8.8125 -3.859375 C 8.8125 -3.109375 8.628906 -2.429688 8.265625 -1.828125 C 7.910156 -1.222656 7.414062 -0.75 6.78125 -0.40625 C 6.144531 -0.0625 5.4375 0.109375 4.65625 0.109375 Z M 4.65625 -1.15625 C 5.164062 -1.15625 5.625 -1.269531 6.03125 -1.5 C 6.445312 -1.726562 6.773438 -2.050781 7.015625 -2.46875 C 7.253906 -2.882812 7.375 -3.347656 7.375 -3.859375 C 7.375 -4.378906 7.253906 -4.847656 7.015625 -5.265625 C 6.773438 -5.679688 6.445312 -6.003906 6.03125 -6.234375 C 5.625 -6.460938 5.164062 -6.578125 4.65625 -6.578125 C 4.132812 -6.578125 3.664062 -6.460938 3.25 -6.234375 C 2.84375 -6.003906 2.519531 -5.679688 2.28125 -5.265625 C 2.050781 -4.847656 1.9375 -4.378906 1.9375 -3.859375 C 1.9375 -3.347656 2.050781 -2.882812 2.28125 -2.46875 C 2.519531 -2.050781 2.84375 -1.726562 3.25 -1.5 C 3.664062 -1.269531 4.132812 -1.15625 4.65625 -1.15625 Z M 4.65625 -1.15625 "/></g></g></g><g fill="#000000" fill-opacity="1"><g transform="translate(158.790844, 145.508148)"><g><path d="M 12.34375 -7.734375 L 9.78125 0 L 8.25 0 L 6.34375 -5.71875 L 4.390625 0 L 2.859375 0 L 0.296875 -7.734375 L 1.796875 -7.734375 L 3.71875 -1.859375 L 5.71875 -7.734375 L 7.03125 -7.734375 L 8.984375 -1.828125 L 10.96875 -7.734375 Z M 12.34375 -7.734375 "/></g></g></g><g fill="#000000" fill-opacity="1"><g transform="translate(173.439304, 145.508148)"><g/></g></g><g fill="#000000" fill-opacity="1"><g transform="translate(178.507462, 145.508148)"><g><path d="M 2.609375 -6.515625 L 0.046875 -6.515625 L 0.046875 -7.734375 L 6.609375 -7.734375 L 6.609375 -6.515625 L 4.046875 -6.515625 L 4.046875 0 L 2.609375 0 Z M 2.609375 -6.515625 "/></g></g></g><g fill="#000000" fill-opacity="1"><g transform="translate(187.173758, 145.508148)"><g><path d="M 1.03125 -7.734375 L 2.46875 -7.734375 L 2.46875 0 L 1.03125 0 Z M 1.03125 -7.734375 "/></g></g></g><g fill="#000000" fill-opacity="1"><g transform="translate(192.716508, 145.508148)"><g><path d="M 8.140625 0 L 8.125 -5.125 L 5.59375 -0.890625 L 4.953125 -0.890625 L 2.40625 -5.0625 L 2.40625 0 L 1.03125 0 L 1.03125 -7.734375 L 2.21875 -7.734375 L 5.296875 -2.609375 L 8.3125 -7.734375 L 9.484375 -7.734375 L 9.5 0 Z M 8.140625 0 "/></g></g></g><g fill="#000000" fill-opacity="1"><g transform="translate(205.278932, 145.508148)"><g><path d="M 6.84375 -1.203125 L 6.84375 0 L 1.03125 0 L 1.03125 -7.734375 L 6.6875 -7.734375 L 6.6875 -6.53125 L 2.46875 -6.53125 L 2.46875 -4.515625 L 6.203125 -4.515625 L 6.203125 -3.34375 L 2.46875 -3.34375 L 2.46875 -1.203125 Z M 6.84375 -1.203125 "/></g></g></g></svg>