<svg xmlns="http://www.w3.org/2000/svg" xmlns:xlink="http://www.w3.org/1999/xlink" width="500" viewBox="0 0 308.25 223.000002" height="500" preserveAspectRatio="xMidYMid meet" version="1.0">
  <defs>
    <g/>
  </defs>
  <g fill="#C3073F" fill-opacity="1">
    <g transform="translate(82.370678, 124.717614)">
      <g>
        <path d="M 14.171875 -24.34375 L 14.734375 -24.34375 C 15.898438 -24.34375 17.03125 -24.179688 18.125 -23.859375 C 19.21875 -23.535156 20.21875 -23.0625 21.125 -22.4375 C 22.03125 -21.820312 22.816406 -21.0625 23.484375 -20.15625 C 24.148438 -19.257812 24.640625 -18.226562 24.953125 -17.0625 C 25.046875 -16.65625 25.113281 -16.3125 25.15625 -16.03125 C 25.207031 -15.757812 25.234375 -15.539062 25.234375 -15.375 L 25.234375 -15.171875 L 18.171875 -15.171875 L 18.015625 -15.53125 C 17.878906 -16 17.660156 -16.484375 17.359375 -16.984375 C 17.066406 -17.484375 16.753906 -17.84375 16.421875 -18.0625 C 15.921875 -18.488281 15.238281 -18.75 14.375 -18.84375 L 14.171875 -18.875 Z M 12.5625 -24.296875 C 12.613281 -24.328125 12.753906 -24.34375 12.984375 -24.34375 L 13.234375 -24.34375 L 13.234375 -18.984375 L 12.890625 -18.84375 C 12.191406 -18.582031 11.566406 -18.097656 11.015625 -17.390625 C 10.472656 -16.691406 10.035156 -15.804688 9.703125 -14.734375 C 9.515625 -14.140625 9.382812 -13.457031 9.3125 -12.6875 C 9.238281 -11.914062 9.226562 -11.078125 9.28125 -10.171875 C 9.300781 -9.597656 9.359375 -8.941406 9.453125 -8.203125 C 9.546875 -7.472656 9.703125 -6.753906 9.921875 -6.046875 C 10.140625 -5.347656 10.429688 -4.707031 10.796875 -4.125 C 11.160156 -3.539062 11.640625 -3.101562 12.234375 -2.8125 C 12.359375 -2.769531 12.484375 -2.726562 12.609375 -2.6875 C 12.742188 -2.65625 12.867188 -2.613281 12.984375 -2.5625 L 13.3125 -2.5 L 13.3125 2.921875 L 12.734375 2.890625 C 9.503906 2.703125 6.972656 1.695312 5.140625 -0.125 C 3.304688 -1.945312 2.175781 -4.390625 1.75 -7.453125 C 1.726562 -7.691406 1.703125 -7.988281 1.671875 -8.34375 C 1.648438 -8.707031 1.640625 -9.148438 1.640625 -9.671875 C 1.585938 -10.742188 1.585938 -11.550781 1.640625 -12.09375 C 1.953125 -15.375 3.035156 -18.09375 4.890625 -20.25 C 6.742188 -22.40625 9.300781 -23.753906 12.5625 -24.296875 Z M 18.0625 -6.0625 L 18.171875 -6.3125 L 21.8125 -6.3125 C 24.207031 -6.363281 25.40625 -6.351562 25.40625 -6.28125 C 25.40625 -6.226562 25.367188 -5.96875 25.296875 -5.5 C 25.066406 -4.164062 24.644531 -2.976562 24.03125 -1.9375 C 23.425781 -0.90625 22.671875 -0.0351562 21.765625 0.671875 C 20.859375 1.390625 19.828125 1.9375 18.671875 2.3125 C 17.523438 2.695312 16.285156 2.898438 14.953125 2.921875 L 14.171875 2.96875 L 14.171875 -2.390625 L 14.453125 -2.421875 C 15.378906 -2.546875 16.128906 -2.867188 16.703125 -3.390625 C 17.347656 -4.054688 17.800781 -4.945312 18.0625 -6.0625 Z M 18.0625 -6.0625 "/>
      </g>
    </g>
  </g>
  <g fill="#C3073F" fill-opacity="1">
    <g transform="translate(107.242352, 124.717614)">
      <g>
        <path d="M 2.140625 -25.265625 L 1.859375 -25.40625 L 9.890625 -25.40625 L 9.890625 2.640625 L 2.640625 2.640625 L 2.640625 -10.8125 C 2.640625 -20.019531 2.601562 -24.695312 2.53125 -24.84375 C 2.457031 -24.957031 2.328125 -25.097656 2.140625 -25.265625 Z M 14.34375 -18.171875 L 15.625 -18.171875 C 16.457031 -18.140625 17.195312 -18.03125 17.84375 -17.84375 C 18.488281 -17.65625 19.046875 -17.367188 19.515625 -16.984375 C 19.992188 -16.609375 20.394531 -16.113281 20.71875 -15.5 C 21.039062 -14.894531 21.296875 -14.15625 21.484375 -13.28125 L 21.625 -12.484375 L 21.703125 2.640625 L 14.671875 2.640625 L 14.625 -4.28125 L 14.625 -10.921875 L 14.53125 -11.34375 C 14.363281 -11.800781 14.140625 -12.125 13.859375 -12.3125 C 13.585938 -12.5 13.203125 -12.617188 12.703125 -12.671875 C 11.941406 -12.710938 11.320312 -12.507812 10.84375 -12.0625 L 10.59375 -11.8125 L 10.59375 -16.28125 L 11.0625 -16.703125 C 11.320312 -16.910156 11.554688 -17.09375 11.765625 -17.25 C 11.984375 -17.40625 12.21875 -17.535156 12.46875 -17.640625 C 12.71875 -17.753906 12.988281 -17.851562 13.28125 -17.9375 C 13.582031 -18.019531 13.9375 -18.097656 14.34375 -18.171875 Z M 14.34375 -18.171875 "/>
      </g>
    </g>
  </g>
  <g fill="#C3073F" fill-opacity="1">
    <g transform="translate(129.47336, 124.717614)">
      <g>
        <path d="M 2.53125 -25.296875 L 9.640625 -25.296875 L 9.640625 -19.84375 L 2.53125 -19.84375 Z M 1.921875 -17.765625 C 1.878906 -17.816406 1.867188 -17.835938 1.890625 -17.828125 C 1.910156 -17.816406 1.945312 -17.8125 2 -17.8125 C 2.113281 -17.832031 2.46875 -17.84375 3.0625 -17.84375 C 3.664062 -17.84375 4.523438 -17.84375 5.640625 -17.84375 L 9.5625 -17.84375 L 9.5625 2.71875 L 2.53125 2.71875 L 2.53125 -8.3125 C 2.53125 -10.550781 2.53125 -12.3125 2.53125 -13.59375 C 2.53125 -14.882812 2.519531 -15.71875 2.5 -16.09375 C 2.445312 -16.851562 2.363281 -17.316406 2.25 -17.484375 C 2.175781 -17.609375 2.066406 -17.703125 1.921875 -17.765625 Z M 1.921875 -17.765625 "/>
      </g>
    </g>
  </g>
  <g fill="#C3073F" fill-opacity="1">
    <g transform="translate(139.749963, 124.717614)">
      <g>
        <path d="M 3.03125 -22.515625 C 3.175781 -22.515625 3.34375 -22.523438 3.53125 -22.546875 C 3.71875 -22.546875 3.929688 -22.550781 4.171875 -22.5625 C 4.410156 -22.582031 4.695312 -22.59375 5.03125 -22.59375 L 11.3125 -22.59375 L 11.3125 -17.84375 L 14.8125 -17.84375 L 14.8125 -12.3125 L 11.28125 -12.3125 L 11.34375 -3.46875 L 11.453125 -3.109375 C 11.671875 -2.628906 11.992188 -2.28125 12.421875 -2.0625 C 12.585938 -1.96875 12.96875 -1.921875 13.5625 -1.921875 L 14.421875 -1.921875 L 14.421875 2.75 L 10.890625 2.71875 L 9.3125 2.71875 C 8.71875 2.71875 8.140625 2.664062 7.578125 2.5625 C 7.023438 2.46875 6.515625 2.296875 6.046875 2.046875 C 5.585938 1.796875 5.195312 1.457031 4.875 1.03125 C 4.550781 0.601562 4.316406 0.046875 4.171875 -0.640625 C 4.097656 -0.972656 4.0625 -3.066406 4.0625 -6.921875 L 4.0625 -12.3125 L 1.328125 -12.3125 L 1.328125 -17.84375 L 4.0625 -17.84375 L 4.0625 -19.515625 C 4.0625 -20.609375 4.03125 -21.273438 3.96875 -21.515625 C 3.863281 -21.710938 3.722656 -21.910156 3.546875 -22.109375 C 3.367188 -22.304688 3.195312 -22.441406 3.03125 -22.515625 Z M 3.03125 -22.515625 "/>
      </g>
    </g>
  </g>
  <g fill="#C3073F" fill-opacity="1">
    <g transform="translate(154.02326, 124.717614)">
      <g>
        <path d="M 15.34375 -18.171875 L 15.703125 -18.171875 L 15.671875 -15.171875 L 15.671875 -11.484375 L 15.09375 -11.53125 C 13.851562 -11.601562 12.796875 -11.410156 11.921875 -10.953125 C 11.421875 -10.691406 10.972656 -10.226562 10.578125 -9.5625 C 10.191406 -8.894531 9.925781 -8.125 9.78125 -7.25 C 9.707031 -6.882812 9.671875 -5.132812 9.671875 -2 L 9.671875 2.71875 L 2.5 2.71875 L 2.5 -7.25 C 2.5 -10.601562 2.492188 -13.085938 2.484375 -14.703125 C 2.472656 -16.316406 2.441406 -17.148438 2.390625 -17.203125 C 2.273438 -17.460938 2.109375 -17.640625 1.890625 -17.734375 C 1.867188 -17.753906 1.878906 -17.78125 1.921875 -17.8125 C 2.046875 -17.832031 2.421875 -17.84375 3.046875 -17.84375 C 3.679688 -17.84375 4.566406 -17.84375 5.703125 -17.84375 L 9.671875 -17.84375 L 9.671875 -14.34375 L 9.921875 -14.84375 C 10.367188 -15.914062 11.097656 -16.738281 12.109375 -17.3125 C 13.117188 -17.882812 14.195312 -18.171875 15.34375 -18.171875 Z M 15.34375 -18.171875 "/>
      </g>
    </g>
  </g>
  <g fill="#C3073F" fill-opacity="1">
    <g transform="translate(168.439293, 124.717614)">
      <g>
        <path d="M 11.78125 -18.171875 C 12.78125 -18.171875 13.75 -18.097656 14.6875 -17.953125 C 15.625 -17.804688 16.476562 -17.539062 17.25 -17.15625 C 18.03125 -16.78125 18.707031 -16.257812 19.28125 -15.59375 C 19.863281 -14.925781 20.3125 -14.070312 20.625 -13.03125 L 20.8125 -12.484375 L 20.8125 2.71875 L 13.78125 2.71875 L 13.78125 -6.140625 L 11.8125 -6.109375 L 9.8125 -6.109375 L 9.421875 -5.921875 C 9.015625 -5.734375 8.753906 -5.34375 8.640625 -4.75 C 8.441406 -3.84375 8.617188 -3.101562 9.171875 -2.53125 C 9.523438 -2.101562 10.15625 -1.890625 11.0625 -1.890625 C 11.394531 -1.890625 11.726562 -1.914062 12.0625 -1.96875 C 12.394531 -2.03125 12.703125 -2.132812 12.984375 -2.28125 C 13.035156 -2.28125 13.0625 -2.257812 13.0625 -2.21875 C 13.082031 -2.113281 13.09375 -1.421875 13.09375 -0.140625 L 13.09375 2 L 12.734375 2.21875 C 12.117188 2.519531 11.453125 2.734375 10.734375 2.859375 C 10.023438 2.992188 9.328125 3.0625 8.640625 3.0625 C 8.234375 3.0625 7.847656 3.046875 7.484375 3.015625 C 7.128906 2.984375 6.785156 2.914062 6.453125 2.8125 C 4.691406 2.34375 3.320312 1.414062 2.34375 0.03125 C 1.375 -1.34375 0.925781 -2.957031 1 -4.8125 C 1.144531 -7.832031 2.765625 -9.644531 5.859375 -10.25 C 6.191406 -10.289062 7.601562 -10.335938 10.09375 -10.390625 L 13.78125 -10.421875 L 13.734375 -11.0625 C 13.691406 -11.96875 13.441406 -12.550781 12.984375 -12.8125 C 12.535156 -13.070312 11.90625 -13.203125 11.09375 -13.203125 C 10.957031 -13.203125 10.765625 -13.191406 10.515625 -13.171875 C 10.265625 -13.148438 10.003906 -13.109375 9.734375 -13.046875 C 9.472656 -12.984375 9.234375 -12.898438 9.015625 -12.796875 C 8.804688 -12.691406 8.664062 -12.539062 8.59375 -12.34375 L 8.53125 -12.171875 L 2 -12.171875 C 2 -12.316406 2.203125 -12.816406 2.609375 -13.671875 C 2.960938 -14.304688 3.394531 -14.910156 3.90625 -15.484375 C 4.414062 -16.054688 4.910156 -16.507812 5.390625 -16.84375 C 6.367188 -17.457031 7.394531 -17.832031 8.46875 -17.96875 C 9.550781 -18.101562 10.65625 -18.171875 11.78125 -18.171875 Z M 11.78125 -18.171875 "/>
      </g>
    </g>
  </g>
  <g fill="#C3073F" fill-opacity="1">
    <g transform="translate(189.778185, 124.717614)">
      <g>
        <path d="M 13.421875 -18.015625 C 13.941406 -18.085938 14.578125 -18.113281 15.328125 -18.09375 C 16.078125 -18.070312 16.675781 -18 17.125 -17.875 C 18.289062 -17.570312 19.242188 -16.882812 19.984375 -15.8125 C 20.078125 -15.625 20.132812 -15.53125 20.15625 -15.53125 C 20.1875 -15.53125 20.34375 -15.671875 20.625 -15.953125 C 21.789062 -17.066406 23.207031 -17.753906 24.875 -18.015625 C 26.019531 -18.179688 27.113281 -18.125 28.15625 -17.84375 C 29.207031 -17.5625 30.050781 -17.097656 30.6875 -16.453125 C 31.59375 -15.546875 32.25 -14.191406 32.65625 -12.390625 C 32.695312 -12.054688 32.734375 -9.472656 32.765625 -4.640625 L 32.796875 2.71875 L 25.625 2.71875 L 25.625 -11.171875 L 25.4375 -11.59375 C 25.25 -12.1875 24.929688 -12.535156 24.484375 -12.640625 C 23.648438 -12.898438 22.945312 -12.882812 22.375 -12.59375 C 21.894531 -12.351562 21.488281 -11.734375 21.15625 -10.734375 L 21.015625 -10.3125 L 21.015625 -3.859375 L 20.984375 2.71875 L 13.78125 2.71875 L 13.78125 -11.421875 L 13.671875 -11.78125 C 13.429688 -12.394531 12.894531 -12.75 12.0625 -12.84375 C 11.375 -12.894531 10.800781 -12.707031 10.34375 -12.28125 C 9.96875 -11.875 9.695312 -11.335938 9.53125 -10.671875 C 9.507812 -10.546875 9.484375 -10.398438 9.453125 -10.234375 C 9.429688 -10.078125 9.421875 -9.84375 9.421875 -9.53125 C 9.398438 -9.21875 9.390625 -8.582031 9.390625 -7.625 C 9.390625 -6.675781 9.390625 -5.394531 9.390625 -3.78125 L 9.390625 2.71875 L 2.28125 2.71875 L 2.28125 -9.421875 C 2.28125 -11.515625 2.28125 -13.140625 2.28125 -14.296875 C 2.28125 -15.453125 2.269531 -16.207031 2.25 -16.5625 C 2.195312 -17.25 2.101562 -17.628906 1.96875 -17.703125 C 1.9375 -17.722656 1.910156 -17.734375 1.890625 -17.734375 C 1.816406 -17.785156 1.851562 -17.820312 2 -17.84375 L 9.390625 -17.84375 L 9.390625 -15.421875 L 9.640625 -15.78125 C 10.492188 -17.039062 11.753906 -17.785156 13.421875 -18.015625 Z M 13.421875 -18.015625 "/>
      </g>
    </g>
  </g>
</svg>
