<?xml version="1.0" encoding="iso-8859-1"?>
<!-- Uploaded to: SVG Repo, www.svgrepo.com, Generator: SVG Repo Mixer Tools -->
<svg height="800px" width="800px" version="1.1" id="Layer_1" xmlns="http://www.w3.org/2000/svg" xmlns:xlink="http://www.w3.org/1999/xlink" 
	 viewBox="0 0 512.001 512.001" xml:space="preserve">
<path style="fill:#BF2345;" d="M477.636,176.632H275.3v74.67h-56v-74.67c-62.643,0-115.734,40.856-134.118,97.365
	c-7.301-4.213-15.774-6.626-24.811-6.626c-27.45,0-49.702,22.252-49.702,49.703c0,27.449,22.253,49.701,49.702,49.701
	c8.906,0,17.266-2.344,24.496-6.449c18.083,57.017,71.43,98.34,134.432,98.34c77.882,0,141.017-63.138,141.017-141.015l-0.017-1.44
	l117.336-26.88c12.699-2.907,23.695-10.667,23.695-23.696v-65.304C501.331,187.297,490.67,176.632,477.636,176.632z"/>
<g>
	<path style="fill:#000003;" d="M477.636,165.963H275.3c-5.893,0-10.669,4.779-10.669,10.669v64.002h-34.663v-64.002
		c0-5.89-4.776-10.669-10.669-10.669c-61.963,0-116.914,37.203-140.205,93.708c-6.016-1.957-12.338-2.969-18.724-2.969
		C27.083,256.702,0,283.785,0,317.074c0,33.288,27.083,60.37,60.371,60.37c6.233,0,12.413-0.967,18.304-2.838
		c10.406,25.771,27.594,48.022,50.196,64.831c26.296,19.56,57.567,29.897,90.428,29.897c81.262,0,147.804-64.233,151.523-144.588
		l109.194-25.015c19.729-4.517,31.984-17.582,31.984-34.096v-65.304C512,181.381,496.585,165.963,477.636,165.963z M490.663,265.635
		c0,8.817-10.775,12.236-15.409,13.299l-117.336,26.878c-4.866,1.115-8.308,5.453-8.286,10.446l0.017,1.394
		c0,71.874-58.474,130.346-130.348,130.346c-57.082,0-107.019-36.528-124.263-90.897c-0.973-3.067-3.279-5.533-6.275-6.707
		c-1.257-0.492-2.578-0.736-3.894-0.736c-1.825,0-3.642,0.467-5.267,1.392c-5.827,3.307-12.476,5.057-19.228,5.057
		c-21.524,0-39.035-17.509-39.035-39.033c0-21.523,17.511-39.035,39.034-39.035c6.851,0,13.586,1.797,19.477,5.197
		c2.788,1.611,6.154,1.876,9.156,0.721c3.004-1.152,5.328-3.599,6.324-6.659c16.403-50.423,61.152-85.348,113.303-89.565v63.571
		c0,5.89,4.776,10.669,10.669,10.669h56c5.892,0,10.669-4.779,10.669-10.669v-64.002h191.667c7.182,0,13.026,5.845,13.026,13.03
		V265.635z"/>
	<path style="fill:#000003;" d="M219.3,405.332h-0.138c-5.889-0.173-10.799,4.476-10.964,10.365
		c-0.166,5.89,4.473,10.8,10.364,10.964c0.249,0.009,0.495,0.009,0.738,0.009c5.892,0,10.669-4.776,10.669-10.669
		C229.969,410.111,225.192,405.332,219.3,405.332z"/>
	<path style="fill:#000003;" d="M192.592,401.167c-36.47-11.665-60.973-45.226-60.973-83.516c0-7.662,1.006-15.297,2.99-22.69
		c1.526-5.691-1.85-11.541-7.541-13.069c-5.692-1.526-11.541,1.85-13.069,7.541c-2.467,9.195-3.717,18.692-3.717,28.218
		c0,47.607,30.467,89.338,75.812,103.839c1.081,0.346,2.175,0.511,3.252,0.511c4.515,0,8.71-2.89,10.16-7.422
		C201.299,408.967,198.204,402.962,192.592,401.167z"/>
	<path style="fill:#000003;" d="M60.371,306.403c-5.874,0-10.667,4.794-10.667,10.667c0,5.879,4.792,10.669,10.667,10.669
		s10.669-4.79,10.669-10.669C71.04,311.198,66.245,306.403,60.371,306.403z"/>
	<path style="fill:#000003;" d="M247.301,124.235c5.892,0,10.669-4.779,10.669-10.669v-60.23c0-5.89-4.776-10.669-10.669-10.669
		c-5.891,0-10.669,4.779-10.669,10.669v60.23C236.633,119.456,241.409,124.235,247.301,124.235z"/>
	<path style="fill:#000003;" d="M189.619,140.298c2.083,2.081,4.814,3.124,7.543,3.124c2.73,0,5.461-1.042,7.544-3.124
		c4.166-4.167,4.166-10.923,0.001-15.089l-43.315-43.317c-4.165-4.163-10.921-4.165-15.088,0
		c-4.166,4.167-4.166,10.923-0.001,15.089L189.619,140.298z"/>
	<path style="fill:#000003;" d="M318.415,122.445c2.73,0,5.46-1.042,7.543-3.124l22.339-22.339c4.165-4.165,4.166-10.921,0-15.089
		c-4.167-4.163-10.922-4.165-15.089,0l-22.339,22.34c-4.166,4.165-4.166,10.921-0.001,15.089
		C312.953,121.402,315.682,122.445,318.415,122.445z"/>
	<path style="fill:#000003;" d="M297.44,143.421c2.737,0,5.471-1.046,7.556-3.136l0.177-0.177c4.16-4.174,4.151-10.927-0.023-15.088
		c-4.171-4.161-10.927-4.151-15.088,0.022l-0.178,0.177c-4.159,4.174-4.15,10.927,0.023,15.088
		C291.989,142.384,294.714,143.421,297.44,143.421z"/>
</g>
</svg>